<?xml version="1.0" standalone="no"?>
<!DOCTYPE svg PUBLIC "-//W3C//DTD SVG 1.1//EN" "http://www.w3.org/Graphics/SVG/1.1/DTD/svg11.dtd" >
<!--
2013-9-30: Created.
-->
<svg>
<metadata>
Created by iconfont
</metadata>
<defs>

<font id="iconfont" horiz-adv-x="1024" >
  <font-face
    font-family="iconfont"
    font-weight="500"
    font-stretch="normal"
    units-per-em="1024"
    ascent="896"
    descent="-128"
  />
    <missing-glyph />
    
    <glyph glyph-name="shujuchakanbaobiao" unicode="&#58881;" d="M961.984 818.944H556.992a44.992 44.992 0 1 1-89.984 0H62.016a30.08 30.08 0 0 1 0-59.968h37.504v-637.248c0-33.088 26.88-59.904 59.968-59.904h720a59.968 59.968 0 0 1 59.968 59.904V759.04h22.528a30.016 30.016 0 0 1 0 59.968z m-67.456-697.216a15.04 15.04 0 0 0-15.04-14.912H159.488a14.976 14.976 0 0 0-14.976 14.912V759.04h750.016v-637.248z m-483.584-22.4c-5.76 0-11.52-2.112-16-6.592l-180.288-150.208a22.656 22.656 0 0 1 0-32c4.48-4.416 10.24-6.528 15.936-6.528s11.52 2.112 15.872 6.592L426.88 60.8a22.592 22.592 0 0 1-15.872 38.4z m202.112 0a22.4 22.4 0 0 1-15.936-6.592 22.72 22.72 0 0 1 0-31.872l180.352-150.208c4.416-4.48 10.176-6.656 16-6.656a22.528 22.528 0 0 1 15.872 38.4l-180.352 150.4a22.144 22.144 0 0 1-15.936 6.528z m-58.24 526.528h254.976a22.592 22.592 0 0 1 22.592 22.528 22.592 22.592 0 0 1-22.592 22.464H554.88a22.528 22.528 0 1 1 0-44.992z m254.976-93.12H554.88a22.528 22.528 0 0 1 0-44.992h254.976a22.592 22.592 0 0 1 22.592 22.528 22.592 22.592 0 0 1-22.592 22.464z m0-138.112H554.88a22.528 22.528 0 1 1 0-44.992h254.976a22.592 22.592 0 0 1 22.592 22.528 22.592 22.592 0 0 1-22.592 22.464z m-466.176-43.008a142.08 142.08 0 0 1 9.472 283.904v-151.296H201.856a142.08 142.08 0 0 1 141.76-132.608z m-6.272 304.704a151.488 151.488 0 0 1-151.552-151.488H337.28V656.32z m472.448-399.808H209.792a22.464 22.464 0 0 1 0-44.992h600a22.592 22.592 0 0 1 22.592 22.464 22.592 22.592 0 0 1-22.592 22.528z"  horiz-adv-x="1024" />

    
    <glyph glyph-name="spcfenxibaobiao" unicode="&#58882;" d="M234.24 364.16c23.808-2.688 46.272 6.016 62.144 21.952l206.592-75.392c2.048-36.864 30.08-68.032 67.52-72.256a76.416 76.416 0 0 1 84.608 77.12l174.4 129.088c8.768-4.992 18.368-8.256 28.864-9.536a76.544 76.544 0 0 1 84.224 68.224 77.312 77.312 0 0 1-67.136 85.568 76.8 76.8 0 0 1-84.352-68.224c-1.408-13.568 0.704-26.688 5.504-38.528l-158.848-117.76a75.52 75.52 0 0 1-50.112 27.84 76.16 76.16 0 0 1-71.552-33.216L318.4 431.104a77.12 77.12 0 0 1-67.072 86.784A76.48 76.48 0 0 1 167.04 449.728 77.312 77.312 0 0 1 234.24 364.16z m605.888 150.976a27.008 27.008 0 1 0 53.76-6.144 27.264 27.264 0 0 0-30.016-24.256 27.584 27.584 0 0 0-23.744 30.4z m-288-196.736a27.264 27.264 0 0 0 29.888 24.256 27.328 27.328 0 0 0 23.808-30.4A27.328 27.328 0 0 0 576 288a27.584 27.584 0 0 0-23.872 30.4zM216 444.096a27.2 27.2 0 0 0 29.824 24.256 27.456 27.456 0 0 0-6.016-54.528 27.264 27.264 0 0 0-23.808 30.272z m14.528-271.872a76.352 76.352 0 0 1 84.224 68.16 77.952 77.952 0 0 1-6.4 40.704l58.624 52.672-52.736 19.2-39.552-35.456a75.84 75.84 0 0 1-27.072 8.576 76.8 76.8 0 0 1-84.288-68.352 77.184 77.184 0 0 1 67.2-85.504z m644.736 15.872a76.544 76.544 0 0 1 84.224 68.16 77.056 77.056 0 0 1-67.264 85.568 74.88 74.88 0 0 1-51.264-12.864l-65.408 44.8-42.304-31.232 78.08-53.376c-1.536-4.992-2.56-10.24-3.264-15.488a77.248 77.248 0 0 1 67.2-85.568zM450.88 409.28l42.688 38.4a74.88 74.88 0 0 1 88.704-1.792l64.384-43.968 42.24 31.296-77.248 52.736a77.12 77.12 0 0 1-64.064 100.608 76.544 76.544 0 0 1-84.16-68.224c-1.152-10.048-0.256-19.84 2.24-29.056l-67.52-60.736 52.736-19.264zM1024 27.52v-58.88H64v-0.64H0v832h64v-772.48h960z"  horiz-adv-x="1024" />

    
    <glyph glyph-name="plus" unicode="&#58883;" d="M810.688 832H213.312A149.376 149.376 0 0 1 64 682.688v-597.376A149.376 149.376 0 0 1 213.312-64h597.376A149.376 149.376 0 0 1 960 85.312V682.688A149.376 149.376 0 0 1 810.688 832z m-32.256-505.088H565.248v-194.048a54.528 54.528 0 1 0-108.992 0V326.912H243.072a57.088 57.088 0 0 0 0 114.176h213.12v196.48a54.528 54.528 0 0 0 109.056 0v-196.48h213.184a57.088 57.088 0 0 0 0-114.176z"  horiz-adv-x="1024" />

    
    <glyph glyph-name="location" unicode="&#58884;" d="M264.128 624.832l138.048-343.68 357.696-150.656-144.384 368.832-351.36 125.504zM509.76 322.56a53.632 53.632 0 1 0 0 107.264 53.632 53.632 0 0 0 0-107.264zM512 883.2A499.2 499.2 0 0 1 12.8 384 499.2 499.2 0 0 1 512-115.2 499.2 499.2 0 0 1 1011.264 384 499.2 499.2 0 0 1 512 883.2z m0-947.136a435.136 435.136 0 0 0-435.2 435.2 435.2 435.2 0 1 0 435.2-435.2z"  horiz-adv-x="1024" />

    
    <glyph glyph-name="minus" unicode="&#58885;" d="M845.888 832H178.176C115.072 832 64 780.928 64 717.824v-667.712C64-12.8 115.072-64 178.176-64h667.712C908.8-64 960-12.864 960 50.112V717.824C960 780.928 908.864 832 845.888 832z m1.92-506.048h-672v112h672v-112z"  horiz-adv-x="1024" />

    
    <glyph glyph-name="off" unicode="&#58886;" d="M694.336 775.424v-72.96c149.76-64.64 226.176-196.16 226.176-348.032 0-215.872-183.68-390.784-411.264-390.784-227.52 0-407.296 174.912-407.296 390.784 0 151.488 100.096 282.88 228.544 347.648V775.04C137.856 705.536 32.896 543.36 32.896 354.432c0-252.288 213.376-456.832 479.296-456.832 265.92 0 478.848 204.544 478.848 456.832 0 189.312-104.064 351.68-296.704 420.992z m-149.76-290.88c0-22.4-19.2-40.576-42.88-40.576-23.552 0-42.752 18.176-42.752 40.576V829.76c0 22.464 19.2 40.64 42.816 40.64 23.616 0 42.816-18.176 42.816-40.64v-345.216z"  horiz-adv-x="1024" />

    
    <glyph glyph-name="function" unicode="&#58887;" d="M449.216 296.064a25.152 25.152 0 0 1-25.152 25.152H296.448a25.152 25.152 0 0 1-25.088-25.152v-127.616c0-13.888 11.2-25.088 25.088-25.088h127.616a25.088 25.088 0 0 1 25.088 25.088V296.064z m303.36 0a25.152 25.152 0 0 1-24.96 25.152H599.872a25.152 25.152 0 0 1-25.152-25.152v-127.616c0-13.888 11.264-25.088 25.152-25.088h127.616a25.088 25.088 0 0 1 25.088 25.088V296.064zM424.128 624.64H296.448a25.152 25.152 0 0 1-25.088-25.088v-127.616c0-13.824 11.2-25.088 25.088-25.088h127.616a25.152 25.152 0 0 1 25.088 25.088V599.552a25.152 25.152 0 0 1-25.088 25.088z m328.576-25.088a25.152 25.152 0 0 1-25.088 25.088H599.936a25.152 25.152 0 0 1-25.152-25.088v-127.616c0-13.824 11.264-25.088 25.152-25.088h127.616a25.152 25.152 0 0 1 25.088 25.088V599.552zM512 883.2a499.2 499.2 0 1 1 0-998.4A499.2 499.2 0 0 1 512 883.2z m-16.896-749.056a36.736 36.736 0 0 0-36.736-36.736H262.208a36.736 36.736 0 0 0-36.8 36.736V330.368c0 20.288 16.512 36.736 36.8 36.736h196.16c20.224 0 36.736-16.448 36.736-36.736v-196.224z m0 303.488a36.8 36.8 0 0 0-36.736-36.736H262.208a36.8 36.8 0 0 0-36.8 36.736V633.856c0 20.288 16.512 36.736 36.8 36.736h196.16c20.224 0 36.736-16.448 36.736-36.736v-196.224z m303.488-303.488a36.672 36.672 0 0 0-36.736-36.736H565.632a36.736 36.736 0 0 0-36.736 36.736V330.368c0 20.288 16.448 36.736 36.736 36.736h196.224c20.288 0 36.736-16.448 36.736-36.736v-196.224z m0 303.488a36.736 36.736 0 0 0-36.736-36.736H565.632a36.8 36.8 0 0 0-36.736 36.736V633.856c0 20.288 16.448 36.736 36.736 36.736h196.224c20.288 0 36.736-16.448 36.736-36.736v-196.224z"  horiz-adv-x="1024" />

    
    <glyph glyph-name="modify" unicode="&#58888;" d="M343.232 335.68a7.872 7.872 0 0 1-1.408-2.624l-45.056-170.88a29.952 29.952 0 0 1 7.168-28.16 27.52 27.52 0 0 1 27.2-7.424l164.224 46.4 0.512-0.128c1.92 0 3.776 0.512 5.12 2.048l438.848 453.568c13.12 13.44 20.16 31.872 20.16 51.84 0 22.656-9.344 45.312-25.472 62.08l-41.408 42.88a84.736 84.736 0 0 1-60.032 26.624c-19.328 0-37.12-7.488-50.24-20.928L343.936 337.28c-0.448-0.512-0.32-1.088-0.704-1.6z m553.664 337.216l-43.648-45.056-70.656 74.24 43.008 44.416c6.784 7.04 20.032 6.08 27.712-2.048l41.536-42.88c4.288-4.48 6.72-10.432 6.72-16.256a17.728 17.728 0 0 0-4.672-12.416zM421.312 328.512l316.608 327.36 70.656-74.304-316.032-326.656-71.232 73.6m-57.664-132.8l22.912 86.912 60.992-63.04-83.904-23.872m561.024 297.472a31.04 31.04 0 0 1-30.336-31.424v-422.912a39.488 39.488 0 0 0-38.848-40.192H163.456a39.68 39.68 0 0 0-38.912 40.192V729.216a39.68 39.68 0 0 0 38.912 40.256h445.696a30.784 30.784 0 0 1 30.272 31.296A30.848 30.848 0 0 1 609.216 832H158.912C106.624 832 64 787.968 64 733.888v-699.84C64-20.032 106.56-64 158.912-64h701.12c52.416 0 94.912 44.032 94.912 98.048V462.016a30.976 30.976 0 0 1-30.272 31.168z"  horiz-adv-x="1024" />

    
    <glyph glyph-name="process" unicode="&#58889;" d="M10.816-26.112H1017.6v-56.896H10.88v56.896zM6.4 234.496l126.144 78.976 234.24-114.816L624 575.04l262.656-195.84 126.592 5.44v-35.008l-141.952-6.528-237.44 175.04-254.976-369.92-242.944 120.384-129.472-78.784v44.672z m887.168 198.592l58.688 2.56V631.68a31.04 31.04 0 0 1-30.976 31.04h-91.136a31.04 31.04 0 0 1-31.104-31.04V503.68l94.528-70.528z m-35.712-146.56l-58.816 43.392v-303.552h153.216V290.944l-94.4-4.48zM612.928 642.432l92.096-68.672V819.968a30.976 30.976 0 0 1-31.04 31.04H582.784a31.04 31.04 0 0 1-31.04-31.04V552.96l61.184 89.472z m25.472-193.984L551.68 322.816v-296.448h153.28V399.36l-66.624 49.152z m-251.904-365.44l-79.872 39.552v-96.192h153.28v163.136l-73.408-106.432z m-33.984 178.176l107.392 157.184v20.8a31.04 31.04 0 0 1-31.104 30.976H337.6a31.04 31.04 0 0 1-30.976-30.976v-155.52l45.888-22.4zM127.36 371.648l86.208-42.304V549.696a31.04 31.04 0 0 1-31.04 30.976H91.456a31.04 31.04 0 0 1-31.104-30.976V329.6l67.072 41.984z m6.848-163.648l-73.92-44.928v-131.392c0-1.792 0.192-3.584 0.512-5.312h152.32a37.312 37.312 0 0 1 0.448 5.312v136.96l-79.36 39.36z"  horiz-adv-x="1024" />

    
    <glyph glyph-name="r-cancel" unicode="&#58890;" d="M434.112 863.552v-159.168c64.512 0 465.088-3.264 465.088-392.128 0-209.344-150.528-380.48-345.088-407.808 121.152 25.664 212.224 136.832 212.224 270.016 0 254.4-238.592 256.576-332.16 256.576v-186.944L124.8 552.64 434.112 863.552z"  horiz-adv-x="1024" />

    
    <glyph glyph-name="product" unicode="&#58891;" d="M743.68 523.328L513.408 405.12 283.136 549.952 505.6 665.088l238.08-141.76z m-489.28-291.2l235.968-141.888V368.256l-235.968 142.08v-278.208z m284.864-140.608l230.336 118.4V487.936L539.264 369.6v-278.08zM1011.264 384a499.2 499.2 0 0 0-499.328-499.2A499.2 499.2 0 0 0 12.736 384a499.2 499.2 0 0 0 499.2 499.2A499.2 499.2 0 0 0 1011.264 384z m-64-12.736a435.2 435.2 0 0 1-435.328 435.2 435.2 435.2 0 0 1-435.2-435.2c0-240.448 194.816-435.2 435.2-435.2a435.2 435.2 0 0 1 435.328 435.2z"  horiz-adv-x="1024" />

    
    <glyph glyph-name="return" unicode="&#58892;" d="M707.52-64a38.208 38.208 0 0 0-27.2 11.52L289.28 354.432a41.28 41.28 0 0 0-0.64 56.704l391.04 408.704a37.888 37.888 0 0 0 54.848 0.832c15.36-15.488 15.744-40.96 0.704-56.96L371.264 383.808l363.392-378.816a41.472 41.472 0 0 0 0.512-56.96 38.08 38.08 0 0 0-27.648-11.968z"  horiz-adv-x="1024" />

    
    <glyph glyph-name="runaway" unicode="&#58893;" d="M989.44 833.344H34.688A34.56 34.56 0 0 1 0 798.72v-624.64c0-19.264 15.488-34.752 34.688-34.752h145.664a35.136 35.136 0 0 1 27.008 12.864l194.048 240.64 88.576-73.152c14.08-11.648 34.944-10.24 47.552 3.2l172.16 185.856a111.104 111.104 0 0 1 168.576 94.912 111.04 111.04 0 0 1-221.952 0c0-14.72 2.88-28.928 8.256-41.728L508.8 394.112 418.56 468.672a34.752 34.752 0 0 1-49.152-4.928L163.84 208.64H69.376V764.032h885.312v-555.264H476.352c-19.2 0-34.688-15.488-34.688-34.752v-169.984H237.952a34.624 34.624 0 1 1 0-69.376h466.24a34.624 34.624 0 1 1 0 69.376H511.04v135.36h478.272c19.2 0 34.688 15.488 34.688 34.56V798.72a34.496 34.496 0 0 1-34.56 34.624z m-222.208-187.968a41.6 41.6 0 1 0 0-83.2 41.6 41.6 0 0 0 0 83.2z"  horiz-adv-x="1024" />

    
    <glyph glyph-name="unqualified" unicode="&#58894;" d="M819.328 698.944c51.84 0.128 95.36-39.744 99.584-91.136a99.392 99.392 0 0 0-84.096-106.24 90.56 90.56 0 0 0-35.456 0.96c-4.544 1.088-6.336-0.32-8.384-3.84a37516.8 37516.8 0 0 0-110.208-189.952c-3.776-6.528 0.96-7.552 4.096-10.048 25.344-20.096 37.184-46.528 32.896-78.592-4.352-33.408-23.232-56.896-54.848-68.928-33.792-12.8-71.616-2.368-94.656 25.344a84.096 84.096 0 0 0-7.424 97.6c3.136 5.376 3.264 7.616-2.176 11.648-51.776 38.4-103.296 76.928-154.688 115.648-4.352 3.2-7.552 3.968-12.608 1.472a65.344 65.344 0 0 0-37.504-5.888c-5.632 0.832-7.872-0.96-10.368-5.312-15.36-26.88-30.848-53.568-46.528-80.384-2.944-4.928-3.072-7.936 0.832-12.8 17.344-22.528 19.584-46.848 6.528-72a64 64 0 0 0-64.128-33.6c-27.584 3.648-46.656 18.88-55.296 45.504-15.168 46.592 25.472 92.416 73.664 83.52 5.44-1.024 7.872 0.512 10.496 4.992 14.592 25.536 29.184 51.136 44.288 76.416 3.264 5.44 3.264 8.32-1.792 12.928a73.28 73.28 0 0 0-18.112 84.224 74.688 74.688 0 0 0 73.984 44.416c30.4-2.048 56.832-23.744 65.408-53.76 5.824-20.224 3.328-39.616-7.36-57.6-2.816-4.8-1.984-6.912 2.176-9.984 52.032-38.72 104.128-77.568 156.16-116.544 3.456-2.56 5.952-3.52 10.112-1.152 14.4 8.128 30.144 11.328 46.528 9.664 5.888-0.576 8.256 1.6 10.944 6.272 36.032 62.656 72.32 125.184 108.8 187.648 3.264 5.568 3.392 8.32-2.112 12.672a98.496 98.496 0 0 0-32.064 110.144 99.264 99.264 0 0 0 93.312 66.688zM1024 27.52v-58.88H64v-0.64H0v832h64v-772.48h960z"  horiz-adv-x="1024" />

    
    <glyph glyph-name="text" unicode="&#58895;" d="M960 584.896l-1.92 2.624v39.296l-42.496 40.256v-0.768l-185.6 176.768a9.728 9.728 0 0 1-2.88 1.792l-1.28 1.152h-576.64C102.08 846.016 64 810.048 64 765.632v-763.264c0-44.416 38.08-80.448 85.12-80.448h723.84c47.04 0 85.12 36.032 85.12 80.448V584.96H960zM724.032 791.68l174.976-166.592h-132.48c-23.488 0-42.56 17.92-42.56 40.192V791.68z m191.552-789.312c0-22.272-19.2-40.256-42.56-40.256H149.12c-23.552 0-42.624 17.984-42.624 40.32V765.568c0 22.208 19.072 40.192 42.56 40.192h532.224v-140.544c0-44.416 38.144-80.384 85.12-80.384h149.12v-582.528zM244.992 604.992h212.864c5.888 0 10.624 4.48 10.624 10.048v20.096c0 5.504-4.736 9.984-10.624 9.984H244.992c-5.888 0-10.624-4.48-10.624-9.984v-20.096c0-5.568 4.736-10.048 10.624-10.048z m0-100.48h212.864c5.888 0 10.624 4.544 10.624 10.048v20.096a10.432 10.432 0 0 1-10.624 10.112H244.992a10.368 10.368 0 0 1-10.624-10.112v-20.032c0-5.568 4.736-10.048 10.624-10.048z m0-100.416h212.864c5.888 0 10.624 4.48 10.624 10.048v20.096c0 5.568-4.736 10.048-10.624 10.048H244.992c-5.888 0-10.624-4.48-10.624-10.048v-20.096c0-5.568 4.736-10.048 10.624-10.048z m-10.624-130.688v-19.968c0-5.632 4.736-10.048 10.624-10.048h532.16c5.888 0 10.624 4.48 10.624 10.048v19.968a10.368 10.368 0 0 1-10.624 10.176H244.992a10.368 10.368 0 0 1-10.624-10.176z m542.848-110.4H244.992a10.368 10.368 0 0 1-10.624-10.048v-20.096c0-5.504 4.736-9.984 10.624-9.984h532.16c5.888 0 10.624 4.48 10.624 9.984v20.096a10.304 10.304 0 0 1-10.56 10.048z"  horiz-adv-x="1024" />

    
    <glyph glyph-name="upward" unicode="&#58896;" d="M737.28 450.88a39.552 39.552 0 0 0-28.224-67.52 39.68 39.68 0 0 0-28.224 11.776L550.72 526.656v-380.224a39.68 39.68 0 1 0-79.36 0V524.544l-128.448-128a39.488 39.488 0 0 0-56.064 0.064 39.68 39.68 0 0 0 0.064 56.064L484.48 649.664l0.128 0.064 0.064 0.128a37.12 37.12 0 0 0 10.496 6.848c0.896 0.448 1.6 1.28 2.496 1.664a39.552 39.552 0 0 0 43.136-8.832l196.48-198.656zM1011.264 384A499.2 499.2 0 0 0 512-115.2C236.288-115.2 12.8 108.224 12.8 384S236.288 883.2 512 883.2A499.2 499.2 0 0 0 1011.264 384zM947.2 384A435.2 435.2 0 1 1 76.8 384c0-240.448 194.816-435.2 435.136-435.2A435.136 435.136 0 0 1 947.2 384z"  horiz-adv-x="1024" />

    
    <glyph glyph-name="riqi" unicode="&#58897;" d="M554.432 426.496H469.504v-84.928h84.928V426.496z m0-148.672H469.504v-84.928h84.928V277.76z m339.84 488.384h-84.928V830.08a21.248 21.248 0 0 1-42.56 0v-63.808H257.152V830.08a21.248 21.248 0 0 1-42.496 0v-63.808H129.728C82.88 766.208 44.8 728.32 44.8 681.344v-679.616c0-46.912 38.016-84.928 84.928-84.928h764.544c46.912 0 84.928 38.016 84.928 84.928V681.28c0 46.976-38.016 84.928-84.928 84.928z m42.432-764.48a42.368 42.368 0 0 0-42.432-42.432H129.728a42.432 42.432 0 0 0-42.496 42.432V511.424h849.472v-509.696z m0 552.192H87.232v127.36c0 23.552 19.072 42.496 42.496 42.496h84.928v-63.68a21.248 21.248 0 1 1 42.496 0v63.68h509.632v-63.68a21.248 21.248 0 1 1 42.496 0v63.68h84.928c23.552 0 42.496-18.944 42.496-42.432v-127.424zM766.72 277.76h-84.928v-84.928h84.928V277.76z m0 148.672h-84.928v-84.928h84.928V426.496zM554.432 129.28H469.504v-85.056h84.928V129.28z m-212.352 0H257.152v-85.056h84.928V129.28z m0 297.28H257.152v-84.928h84.928V426.496z m0-148.672H257.152v-84.928h84.928V277.76z"  horiz-adv-x="1024" />

    
    <glyph glyph-name="about" unicode="&#58898;" d="M508.608 306.56c-61.312 0-119.04 25.6-162.432 72.192a254.656 254.656 0 0 0-67.264 174.464c0 65.92 23.936 127.872 67.264 174.464 43.392 46.528 101.12 72.32 162.432 72.32s119.04-25.792 162.368-72.32a254.592 254.592 0 0 0 67.264-174.464c0-65.92-23.872-127.872-67.2-174.464S569.856 306.56 508.544 306.56z m0 426.496c-92.288 0-167.424-80.64-167.424-179.84s75.136-179.84 167.424-179.84c92.288 0 167.424 80.64 167.424 179.84s-75.136 179.84-167.424 179.84zM821.12-32c-17.152 0-31.04 14.976-31.04 33.408 0 43.776-8.576 85.888-25.344 125.44-7.104 16.704-0.32 36.608 15.36 44.16a30.208 30.208 0 0 0 41.216-16.32c20.48-48.32 30.912-99.84 30.912-153.28 0-18.432-13.888-33.408-31.104-33.408z m-624 0c-17.28 0-31.168 14.976-31.168 33.408 0 49.792 9.088 98.176 27.008 143.616 17.28 43.776 41.984 83.2 73.472 117.056a341.76 341.76 0 0 0 109.12 78.976 321.216 321.216 0 0 0 133.568 28.992c58.88 0 116.992-16.256 168-47.168 14.976-8.96 20.224-29.44 11.84-45.504a30.08 30.08 0 0 0-42.432-12.8 265.6 265.6 0 0 1-137.408 38.528c-154.88 0-280.96-135.36-280.96-301.696 0-18.432-13.824-33.408-31.104-33.408z m77.952 353.856c-102.912 0-186.624 89.984-186.624 200.448 0 110.528 83.712 200.448 186.624 200.448v-66.88c-68.544 0-124.352-59.904-124.352-133.568s55.808-133.568 124.352-133.568v-66.88zM31.104 56.832c-17.152 0-31.04 15.04-31.04 33.472 0 79.04 28.608 153.344 80.64 209.216 51.968 55.872 121.216 86.656 194.752 86.656 17.152 0 31.104-14.976 31.104-33.472 0-18.496-13.952-33.472-31.104-33.472-117.568 0-213.12-102.656-213.12-228.928-0.064-18.432-14.016-33.472-31.232-33.472z m717.888 264.96V388.8c68.544 0 124.288 59.904 124.288 133.568s-55.68 133.568-124.288 133.568V722.688c102.912 0 186.56-89.856 186.56-200.384 0-110.464-83.648-200.448-186.56-200.448z m243.84-264.96c-17.152 0-31.104 15.04-31.104 33.472 0 126.272-95.616 228.928-213.12 228.928-17.152 0-31.168 14.976-31.168 33.472 0 18.496 14.016 33.472 31.168 33.472 73.6 0 142.72-30.72 194.688-86.656A305.472 305.472 0 0 0 1024 90.24c0-18.432-13.888-33.472-31.104-33.472z"  horiz-adv-x="1024" />

    
    <glyph glyph-name="add" unicode="&#58899;" d="M512 883.2A499.2 499.2 0 0 1 12.8 384 499.2 499.2 0 0 1 512-115.2 499.2 499.2 0 0 1 1011.264 384 499.2 499.2 0 0 1 512 883.2z m235.584-538.816H551.36v-195.968a39.68 39.68 0 0 0-79.232 0V344.384H276.416A39.744 39.744 0 0 0 236.8 384a39.68 39.68 0 0 0 39.616 39.616h195.712V619.584c0 21.824 17.856 39.68 39.616 39.68 21.824 0 39.616-17.856 39.616-39.68v-195.968h196.16A39.68 39.68 0 0 0 787.2 384a39.68 39.68 0 0 0-39.616-39.616z"  horiz-adv-x="1024" />

    
    <glyph glyph-name="cancel" unicode="&#58900;" d="M512 883.2A499.2 499.2 0 0 1 12.8 384 499.2 499.2 0 0 1 512-115.2 499.2 499.2 0 0 1 1011.264 384 499.2 499.2 0 0 1 512 883.2z m0-934.4A435.136 435.136 0 0 0 76.8 384 435.2 435.2 0 0 0 512 819.2 435.2 435.2 0 0 0 947.2 384c0-240.448-194.816-435.2-435.2-435.2z m194.56 573.76L567.872 383.808l138.56-138.56a39.68 39.68 0 0 0 0-56 39.744 39.744 0 0 0-56.064 0L511.872 327.808 373.44 189.44a39.744 39.744 0 0 0-56.064 0 39.68 39.68 0 0 0 0 56l138.368 138.368-138.496 138.56a39.744 39.744 0 0 0 0 56.064 39.744 39.744 0 0 0 56.064 0l138.56-138.56 138.688 138.688a39.616 39.616 0 0 0 56-56z"  horiz-adv-x="1024" />

    
    <glyph glyph-name="down" unicode="&#58901;" d="M286.72 317.12a39.68 39.68 0 1 0 56.448 55.744l130.112-131.52v380.16a39.68 39.68 0 1 0 79.36 0v-378.112l128.448 128a39.616 39.616 0 1 0 56-56.064L539.52 118.336l-0.128-0.064-0.064-0.128a38.528 38.528 0 0 0-10.496-6.848c-0.896-0.448-1.6-1.28-2.496-1.6a39.424 39.424 0 0 0-43.136 8.768L286.72 317.12zM12.736 384A499.2 499.2 0 0 0 512 883.2c275.712 0 499.2-223.424 499.2-499.2s-223.488-499.2-499.2-499.2A499.2 499.2 0 0 0 12.736 384zM76.8 384a435.2 435.2 0 1 1 870.4 0c0 240.448-194.816 435.2-435.136 435.2A435.136 435.136 0 0 1 76.8 384z"  horiz-adv-x="1024" />

    
    <glyph glyph-name="delete" unicode="&#58902;" d="M323.264 351.488l0.32 0.32-0.32-0.32zM824.448 589.056c0 17.088 13.696 30.976 30.656 30.976 16.832 0 30.592-13.888 30.592-30.976v-548.416c0-28.736-11.648-54.976-30.272-73.856l-1.984-1.856c-18.688-17.92-43.776-28.928-70.976-28.928H241.6c-28.416 0-54.208 11.776-72.896 30.72a104.96 104.96 0 0 0-30.336 73.856v548.48a30.72 30.72 0 0 0 30.592 30.976c16.896 0 30.592-13.888 30.592-30.976v-548.416c0-11.648 4.8-22.336 12.416-30.08s18.112-12.48 29.632-12.48h540.864a40.96 40.96 0 0 1 28.352 11.264l1.216 1.28a42.56 42.56 0 0 1 12.416 30.08V589.056z m-343.04-22.336v-462.208c0-17.152 13.632-30.976 30.592-30.976s30.528 13.888 30.528 30.976V566.72c0 17.152-13.568 31.04-30.528 31.04s-30.592-13.888-30.592-31.04z m-163.136 0v-462.208a30.72 30.72 0 0 1 30.528-30.976 30.72 30.72 0 0 1 30.592 30.976V566.72a30.72 30.72 0 0 1-30.592 31.04 30.72 30.72 0 0 1-30.528-31.04z m326.272 0v-462.208c0-17.152 13.76-30.976 30.656-30.976a30.784 30.784 0 0 1 30.528 30.976V566.72a30.784 30.784 0 0 1-30.528 31.04 30.848 30.848 0 0 1-30.656-31.04zM94.592 691.008A30.72 30.72 0 0 0 64 722.048a30.72 30.72 0 0 0 30.592 31.04h244.544l67.648 69.632A30.4 30.4 0 0 0 428.544 832h166.912c9.216 0 17.664-4.224 23.232-10.816l67.008-68.096h243.776c16.768 0 30.528-13.888 30.528-31.04a30.784 30.784 0 0 0-30.592-30.976h-256.32v0.064a30.528 30.528 0 0 0-21.696 9.088L582.848 769.92H441.216L375.104 702.016a30.144 30.144 0 0 0-23.36-11.008H94.592z"  horiz-adv-x="1024" />

    
    <glyph glyph-name="collection" unicode="&#58903;" d="M92.032 588.736H32V806.4h60.032v-217.664zM272 806.4H92.032v-64H272v64z m0-153.664H92.032v-64H272v64zM332.032 806.4H272v-217.6h60.032V806.4z m-240-531.136H32V492.8h60.032v-217.536zM272 492.8H92.032v-64H272v64z m0-153.6H92.032v-63.936H272V339.2z m60.032 153.6H272v-217.536h60.032V492.8z m-240-531.2H32v217.6h60.032v-217.6z m179.968 217.664H92.032v-64H272v64z m0-153.664H92.032v-64H272v64z m60.032 153.664H272v-217.6h60.032v217.6zM452.032 736H332.032v-64h120v64z m120-320h-240v-64h240v64z m-120-320H332.032v-64h120v64zM512 736h-59.968v-704H512v704z m120 64h-59.968v-832h60.032v832z m360 0H632v-64H992v64z m-59.968-832h59.968V742.016h-60.032V-32z m0 64H632v-64h300.032v64z m-180.032 640h-60.032v-64h60.032v64z m120 0h-60.032v-64h60.032v64z m-120-128h-60.032v-64h60.032v64z m120 0h-60.032v-64h60.032v64z m-120-128h-60.032v-64h60.032v64z m120 0h-60.032v-64h60.032v64z m-120-128h-60.032v-64h60.032v64z m120 0h-60.032v-64h60.032v64z m-120-128h-60.032v-64h60.032v64z m120 0h-60.032v-64h60.032v64z"  horiz-adv-x="1024" />

    
    <glyph glyph-name="report" unicode="&#58904;" d="M992 41.152v-56.512H92.032v-0.64H32V784h60.032v-742.848H992zM332.032 414.784h-96v-307.712h96V414.784zM512 476.288H416v-369.28H512v369.28z m180.032 153.856h-96v-523.072h96V630.144z m179.968 123.072h-96v-646.144h96V753.216z"  horiz-adv-x="1024" />

    
    <glyph glyph-name="510tongji_guanxitu" unicode="&#58953;" d="M960 384c-32 0-57.6-25.6-64-57.6l-70.4-6.4c-12.8 38.4-51.2 64-89.6 64-25.6 0-51.2-12.8-70.4-32L512 422.4c0 83.2-70.4 153.6-160 153.6-12.8 0-25.6 0-38.4-6.4l-38.4 83.2C300.8 672 320 704 320 736c0 12.8 0 19.2-6.4 32l140.8 44.8c6.4-25.6 32-44.8 57.6-44.8 38.4 0 64 25.6 64 64S550.4 896 512 896c-25.6 0-51.2-19.2-57.6-44.8L288 806.4C275.2 819.2 249.6 832 224 832c-51.2 0-96-44.8-96-96s44.8-96 96-96h6.4l38.4-89.6C224 524.8 192 473.6 192 416c0-70.4 51.2-134.4 115.2-153.6L288 192c-32 0-57.6-12.8-70.4-38.4L128 192c0 32-32 64-64 64-38.4 0-64-25.6-64-64s25.6-64 64-64c19.2 0 38.4 6.4 44.8 25.6l83.2-38.4V96c0-19.2 6.4-32 12.8-44.8L160-6.4c-12.8 6.4-19.2 6.4-32 6.4-38.4 0-64-25.6-64-64s25.6-64 64-64 64 25.6 64 64c0 6.4 0 12.8-6.4 25.6l44.8 57.6c19.2-12.8 38.4-19.2 57.6-19.2 19.2 0 38.4 6.4 51.2 12.8l51.2-51.2c-6.4-6.4-6.4-12.8-6.4-25.6 0-38.4 25.6-64 64-64s64 25.6 64 64-25.6 64-64 64c-6.4 0-19.2 0-25.6-6.4l-51.2 57.6C377.6 64 384 76.8 384 96c0 38.4-19.2 70.4-51.2 83.2L352 256c70.4 0 134.4 51.2 153.6 115.2l140.8-57.6c-6.4-6.4-6.4-19.2-6.4-25.6 0-51.2 44.8-96 96-96h19.2l32-83.2C774.4 96 768 83.2 768 64c0-38.4 25.6-64 64-64s64 25.6 64 64-25.6 64-64 64l-32 83.2c19.2 12.8 32 32 32 57.6l76.8 12.8c12.8-12.8 32-25.6 51.2-25.6 38.4 0 64 25.6 64 64s-25.6 64-64 64z"  horiz-adv-x="1024" />

    
    <glyph glyph-name="513tongji_loudoutu" unicode="&#58954;" d="M89.743 881.188h834.28L499.814 336.32 89.743 881.188zM371.175 57.32l261.082-170.507V521.996H371.175V57.32z m1.326-28.666"  horiz-adv-x="1024" />

    
    <glyph glyph-name="514tongji_yibiaopan" unicode="&#58955;" d="M419.84 217.6c-33.28-58.88-10.24-104.96 35.84-133.12 46.08-25.6 99.84-23.04 133.12 35.84s245.76 576 227.84 588.8c-17.92 7.68-360.96-435.2-396.8-491.52zM512 586.24c20.48 0 40.96-2.56 61.44-5.12 20.48 25.6 46.08 56.32 69.12 84.48-40.96 12.8-84.48 17.92-130.56 17.92-273.92 0-486.4-230.4-486.4-524.8 0-17.92 0-35.84 2.56-53.76 2.56-25.6 25.6-46.08 53.76-43.52 25.6 2.56 46.08 25.6 43.52 53.76-2.56 15.36-2.56 30.72-2.56 46.08 0 238.08 171.52 424.96 389.12 424.96z m350.72-61.44c-12.8-35.84-28.16-74.24-40.96-104.96 48.64-71.68 79.36-161.28 79.36-258.56 0-15.36 0-30.72-2.56-46.08-2.56-25.6 17.92-51.2 43.52-53.76h5.12c25.6 0 46.08 17.92 48.64 43.52 2.56 17.92 2.56 35.84 2.56 53.76 0 145.92-51.2 273.92-135.68 366.08z m0 0"  horiz-adv-x="1024" />

    
    <glyph glyph-name="500tongji_baobiao" unicode="&#58956;" d="M959.825 511.998V704.06c0 70.692-57.308 128-128 128H191.94c-70.692 0-128-57.308-128-128v-639.885c0-70.692 57.308-128 128-128h639.885c70.692 0 128 57.308 128 128V511.998z m-813.16 237.337a63.738 63.738 0 0 0 45.336 18.785H832a63.962 63.962 0 0 0 63.886-64.121v-128.061H127.88v128.06a63.738 63.738 0 0 0 18.785 45.337z m269.127-461.308v223.97h192.181v-223.97H415.792z m192.181-63.94v-223.972H415.792V224.086h192.181z m-256.121 63.94H127.88v223.97h223.972v-223.97zM146.665 18.79a63.467 63.467 0 0 0-18.785 45.21V224.086h223.972v-223.97h-159.85a63.626 63.626 0 0 0-45.337 18.675z m749.22 45.21a63.763 63.763 0 0 0-63.886-63.886H671.914V224.086h223.97v-160.085z m0 224.026H671.914v223.97h223.97v-223.97z"  horiz-adv-x="1024" />

    
    <glyph glyph-name="511tongji_shutu" unicode="&#58957;" d="M448 320h326.4c12.8-38.4 51.2-64 89.6-64 51.2 0 96 44.8 96 96s-44.8 96-96 96c-44.8 0-76.8-25.6-89.6-64H448V704h326.4c12.8-38.4 51.2-64 89.6-64 51.2 0 96 44.8 96 96s-44.8 96-96 96c-44.8 0-76.8-25.6-89.6-64H384v-384H185.6c-12.8 38.4-44.8 64-89.6 64-51.2 0-96-44.8-96-96s44.8-96 96-96c44.8 0 76.8 25.6 89.6 64H384v-384h390.4c12.8-38.4 51.2-64 89.6-64 51.2 0 96 44.8 96 96s-44.8 96-96 96c-44.8 0-76.8-25.6-89.6-64H448V320z"  horiz-adv-x="1024" />

    
    <glyph glyph-name="502tongji_zhexiantu" unicode="&#58958;" d="M929.28 0h-864V272.32l184.448 184.448C261.76 451.264 275.072 448 289.28 448s27.456 3.264 39.552 8.768l129.216-129.216c-5.568-12.032-8.768-25.408-8.768-39.552 0-52.992 43.008-96 96-96s96 43.008 96 96c0 14.144-3.264 27.52-8.768 39.552l317.44 317.44c13.824 13.76 13.824 36.096 0 49.92-13.76 13.76-36.096 13.76-49.92 0L581.76 376.704c-11.264 4.672-23.552 7.296-36.48 7.296s-25.28-2.624-36.544-7.296L377.984 507.52A94.665 94.665 0 0 1 385.28 544c0 52.992-43.008 96-96 96s-96-43.008-96-96a94.665 94.665 0 0 1 7.296-36.48L65.28 372.16V736c0 17.664-14.336 32-32 32s-32-14.336-32-32v-437.312a33.462 33.462 0 0 1 0-12.864V-32c0-17.664 14.336-32 32-32h896c17.664 0 32 14.336 32 32s-14.336 32-32 32z m-384 320c17.664 0 32-14.336 32-32s-14.336-32-32-32-32 14.336-32 32 14.272 32 32 32z m-256 256c17.664 0 32-14.336 32-32s-14.336-32-32-32-32 14.336-32 32 14.272 32 32 32z"  horiz-adv-x="1024" />

    
    <glyph glyph-name="506tongji_leidatu" unicode="&#58959;" d="M511 774c-215.4 0-390-174.6-390-390s174.6-390 390-390 390 174.6 390 390-174.6 390-390 390z m63.1-381.8c-1.2 10.4-4.9 20.1-10.5 28.3l67 57.1L794.1 332l-220 60.2z m-34.8 49.7c-3.7 1.9-7.6 3.4-11.7 4.5V631.7l84.3-128-72.6-61.8z m-43.7 213.8v-208.8c-11.3-2.7-21.4-8.3-29.4-16.1L276.9 556.1l218.7 99.6z m-46.2-252.1c-1.2-3.9-2.1-8-2.5-12.3l-187.7-51.4 11.4 182 178.8-118.3z m2.4-44.1c3.5-8.1 8.7-15.4 15-21.4L397.9 128 259.2 306.7l192.6 52.8z m43.6-37c4.9-1.2 10-1.8 15.2-1.8 4.1 0 8.1 0.4 12 1.1l77.9-113.1-167.4-76 62.3 189.8z m56.5 13.3c7.7 6.5 13.9 14.9 17.9 24.4l272.9-74.7-213.4-61.9-77.4 112.2zM860 316L655.2 498.6l130.4 111.2c50.5-61.4 80.9-140 80.9-225.8 0-23.2-2.2-46-6.5-68z m-95.8 317.5L636.4 524.6 527.6 689.9v49.2c92.5-4.2 175.7-43.8 236.6-105.6zM495.6 739.2v-48.3L245.5 577l-22.8 15c61.8 85.5 160.6 142.4 272.9 147.2zM205.1 565.3l34.7-23L226.6 331l-64.1-17.6c-4.6 22.8-7 46.4-7 70.6 0 66.2 18.1 128.2 49.6 181.3z m-34.9-282.9l55.5 15.2 160.1-206.3-11.7-35.6c-97.6 40.9-173.3 124-203.9 226.7z m234.1-237.6l15.3 46.7L619 182l72.1-104.6c-52.8-31.1-114.4-49-180.1-49-37.2 0.1-73 5.8-106.7 16.4zM718 94.9l-69.5 100.9L841 251.7c-25.4-63.3-68.4-117.6-123-156.8z"  horiz-adv-x="1024" />

    
    <glyph glyph-name="508tongji_xiangxiantu" unicode="&#58960;" d="M448 704v64H0v-64h192v-128H0v-384h192v-192H0v-64h448v64H256V192h192V576H256V704h192z m-64-448H64V384h320v-128z m0 256v-64H64v64h320zM960 768V832H512v-64h192v-128H512v-384h192v-192H512v-64h448v64H768V256h192V640H768V768h192z m-64-448H576V448h320v-128z m0 256v-64H576v64h320z"  horiz-adv-x="1024" />

    
    <glyph glyph-name="507tongji_Kxiantu" unicode="&#58961;" d="M960 640h-64V896h-64v-256h-64v-384h64v-256h64V256h64zM128 704H64v-128H0v-320h64v-192h64V256h64V576h-64zM640 576h-64v-192h-64v-256h64v-192h64V128h64V384h-64zM384 896h-64v-192h-64v-512h64v-320h64V192h64V704h-64z"  horiz-adv-x="1024" />

    
    <glyph glyph-name="501tongji_sandianshitu" unicode="&#58962;" d="M921.577 66.03H161.874V760.24c0 14.408-11.788 26.197-26.196 26.197s-26.197-11.789-26.197-26.197v-746.604h812.098c14.407 0 26.196 11.788 26.196 26.196s-11.791 26.196-26.198 26.196zM668.327 298.54a77.435 77.435 0 1 1 158.48 0 77.435 77.435 0 1 1-158.48 0zM607.828 483.434c38.898 0 70.435 31.538 70.435 70.436 0 38.899-31.536 70.436-70.435 70.436-38.898 0-70.436-31.537-70.436-70.436 0-38.898 31.537-70.436 70.436-70.436zM773.98 613.642c38.897 0 70.434 31.537 70.434 70.436 0 38.9-31.535 70.436-70.434 70.436-38.898 0-70.435-31.537-70.435-70.436 0-38.898 31.537-70.436 70.435-70.436zM833.669 430.606c38.898 0 70.437 31.538 70.437 70.437s-31.538 70.435-70.437 70.435c-38.898 0-70.436-31.536-70.436-70.435 0.001-38.9 31.538-70.437 70.436-70.437zM192.897 245.713c0-34.039 27.6-61.63 61.63-61.63s61.63 27.592 61.63 61.63c0 34.04-27.598 61.631-61.63 61.631-34.03 0.002-61.63-27.59-61.63-61.63M368.982 342.561c48.63 0 88.044 39.414 88.044 88.047 0 48.62-39.412 88.043-88.044 88.043-48.63 0-88.043-39.42-88.043-88.043-0.001-48.631 39.412-88.047 88.043-88.047zM386.59 175.277c0-34.039 27.599-61.63 61.632-61.63 34.03 0 61.632 27.592 61.632 61.63 0 34.04-27.601 61.633-61.632 61.633-34.031 0.002-61.632-27.592-61.632-61.633zM553.87 236.912c34.03 0 61.63 27.59 61.63 61.63 0 34.038-27.6 61.628-61.63 61.628s-61.627-27.59-61.627-61.628c0-34.04 27.598-61.63 61.626-61.63z"  horiz-adv-x="1024" />

    
    <glyph glyph-name="504tongji_ditu" unicode="&#58963;" d="M828.823 48.163h63.619v64.263h-63.619v-64.263z m-318.082-64.254h127.23v-64.268h-127.23v64.268z m497.865 758.217L884.997 848.3c-9.098 7.766-21.691 9.837-32.765 5.203l-95.677-39.911-77.1-48.831c-10.186-6.556-15.85-18.329-14.575-30.402l9.609-94.608-89.001-61.763-104.905-12.524-83.851 46.016-52.098 102.629c-7.891 15.553-26.654 21.852-42.239 14.204l-113.053-55.718c-10.939-5.398-17.875-16.587-17.875-28.87v-42.147l-37.728-37.149H90.861a31.59 31.59 0 0 1-22.074-9.001L11.53 499.712c-12.974-12.658-12.974-33.612 0-46.27l50.198-48.849 28.818-137.906c1.524-7.276 5.474-13.829 11.262-18.449l104.391-84.514c5.661-4.56 12.665-7.063 19.914-7.063h115.024v-69.921c0-17.743 14.246-32.14 31.802-32.14h128.062l57.959-39.851c10.052-6.931 23.09-7.439 33.653-1.349l78.75 45.443 108.661 41.321c5.788 2.189 10.746 6.103 14.444 11.113l68.384 94.862c3.947 5.534 6.109 12.148 6.109 18.899v93.573a32.369 32.369 0 0 1-9.605 23.007l-39.95 39.204 50.571 33.67c4.708 3.091 8.463 7.394 11.01 12.465l35.498 71.541 89.765 63.11c8.522 6.029 13.615 15.852 13.615 26.353V717.648a32.225 32.225 0 0 1-11.262 24.475z m-52.363-137.321l-82.762-58.314c-4.319-3.075-7.884-7.185-10.238-11.954l-35.249-71.06-76.719-50.845c-16.992-11.306-19.281-35.531-4.709-49.867l58.716-57.712v-69.532l-56.685-78.682-104.261-40.091-65.907-37.659-49.687 34.18c-5.28 3.675-11.513 5.593-17.939 5.593H404.689v69.923c0 17.743-14.249 32.14-31.81 32.14H237.253l-86.841 70.252-28.431 136.362c-1.342 6.315-4.454 12.09-9.103 16.528l-33.395 32.577 29.198 23.591h38.107a31.65 31.65 0 0 1 22.209 9.12l56.549 55.716c6.045 5.985 9.545 14.266 9.545 22.949l-5.284 10.079 72.521 58.554 42.309-83.347a32.256 32.256 0 0 1 13.105-13.557l101.405-55.733a32.2 32.2 0 0 1 18.961-3.583l122.647 14.695c5.09 0.646 9.989 2.462 14.249 5.414l111.073 76.985c9.613 6.691 14.826 18.058 13.617 29.759l-9.539 93.766 55.601 35.666 72.778 29.952 97.711-83.93v-97.936h-0.001z m0 0z"  horiz-adv-x="1024" />

    
    <glyph glyph-name="505tongji_zhuzhuangtu" unicode="&#58964;" d="M1037.706 56.714h-96.808c-26.781 0-48.285 28.672-48.285 63.803V565.012c0 34.816 21.661 63.409 48.285 63.409h96.808c26.309 0 47.813-28.593 47.813-63.41v-444.573c0.157-35.052-21.504-63.724-47.813-63.724M703.488 56.714h-98.855c-27.255 0-49.31 28.672-49.31 63.803V819.2c0 34.816 21.977 63.41 49.31 63.41h98.776c27.254 0 49.389-28.594 49.389-63.41v-698.762c0.078-35.052-22.213-63.724-49.31-63.724M359.424 56.714h-97.516c-26.703 0-48.6 28.672-48.6 63.803V247.493c0 34.973 21.976 63.488 48.6 63.488h97.595c26.703 0 48.6-28.436 48.6-63.488v-126.976c-0.078-35.131-21.897-63.803-48.679-63.803M110.67-70.34c0-31.824-24.89-57.66-55.374-57.66C24.734-128 0-102.164 0-70.34V838.34C0 870.165 24.812 896 55.296 896c30.484 0 55.375-25.836 55.375-57.66v-908.68zM1115.372-16.305c36.707 0 66.166-24.97 66.166-55.848 0-30.877-29.538-55.847-66.166-55.847H72.074c-36.628 0-66.166 24.97-66.166 55.847 0 30.878 29.538 55.848 66.166 55.848h1043.298z"  horiz-adv-x="1182" />

    
    <glyph glyph-name="512tongji_sangjitu" unicode="&#58965;" d="M0 822.857h73.143V603.43H0V822.857zM585.143 603.429V822.857H512V603.43zM1024 822.857h73.143v-146.286H1024V822.857zM109.714 822.857H475.43V603.43H109.714V822.857zM109.714 530.286H475.43v-219.429H109.714V530.286zM621.714 530.286H987.43v-219.429H621.714V530.286zM621.714 157.257l365.715-58.514V245.029l-365.715 58.514zM475.429 296.229L292.57 201.143l-182.857 95.086v-146.286L146.286 128l-36.572-14.629v-146.285l182.857 87.771 182.858-87.771V113.37L438.857 128l36.572 21.943zM621.714 822.857H987.43v-146.286H621.714V822.857zM621.714 596.114L987.43 537.6v73.143l-365.715 58.514zM73.143 530.286H0V164.57h73.143V310.857zM585.143 530.286H512V164.57h73.143V310.857zM1024 310.857h73.143V603.43H1024v-73.143zM0 91.429h73.143v-146.286H0V91.429zM512 91.429h73.143v-146.286H512V91.429zM621.714 91.429H987.43v-146.286H621.714V91.429zM1024-54.857h73.143V237.714H1024V91.43z"  horiz-adv-x="1098" />

    
    <glyph glyph-name="509tongji_relitu" unicode="&#58966;" d="M781.982-118.034c-132.704 68.537-350.67 23.415-483.373 41.095-132.705 17.68-218.375 140.213-263.497 266.637-115.434 323.296 78.025 411.014 235.372 403.915 157.415-7.304 91.61 154.207 312.237 274.828C803.348 989.063 862.874 678.874 838.367 608.426c-24.574-70.448-41.504-137.756 124.99-314.285 166.495-176.597-48.671-480.848-181.375-412.175z m109.426 407.601c-145.742 147.654-147.995 210.388-123.01 276.74 21.502 57.478 9.488 316.47-178.919 216.464-188.407-100.074-131.748-261.517-265.272-257.422-133.591 4.096-316.606-69.628-221.924-330.6 36.999-101.985 123.693-183.56 236.191-196.393 112.498-12.902 295.786 18.909 407.738-35.224 111.952-54.201 284.795 184.994 145.196 326.435zM650.097 103.481c-69.083 25.872-84.374 113.181-63.826 185.13 20.615 72.087-42.324 171.615-71.54 227.523-29.149 56.112 38.978 182.195 111.337 201.513 117.482 31.402 58.297-153.387 63.212-276.74 5.052-123.352 181.035-203.698 179.192-279.197-1.843-75.5-149.36-84.169-218.375-58.229z m-178.1 99.46c-60.617-54.952-137.892-83.827-216.053-57.546-78.025 26.35-130.042 154.48-69.424 208.613 123.557 110.45 136.527-5.188 237.284 43.894 100.688 49.013 108.743-140.009 48.194-194.96z"  horiz-adv-x="1024" />

    
    <glyph glyph-name="503tongji_bingtu" unicode="&#58967;" d="M435.2-128c-116.224 0-225.536 45.26-307.712 127.488S0 190.976 0 307.2c0 116.224 45.26 225.536 127.488 307.712S318.976 742.4 435.2 742.4c14.131 0 25.6-11.469 25.6-25.6v-384h384c14.131 0 25.6-11.469 25.6-25.6 0-116.224-45.26-225.536-127.488-307.712S551.424-128 435.2-128z m-25.6 818.38C209.766 677.172 51.2 510.363 51.2 307.2c0-211.763 172.237-384 384-384 203.11 0 369.92 158.566 383.18 358.4H435.2c-14.131 0-25.6 11.469-25.6 25.6V690.38zM947.2 384H537.6c-14.131 0-25.6 11.469-25.6 25.6V819.2c0 14.131 11.469 25.6 25.6 25.6 116.224 0 225.536-45.26 307.712-127.488S972.8 525.824 972.8 409.6c0-14.131-11.469-25.6-25.6-25.6z m-384 51.2h357.58C908.135 626.586 754.587 780.083 563.2 792.78V435.2z"  horiz-adv-x="1024" />

    
    <glyph glyph-name="601xinxi_tixing" unicode="&#58968;" d="M856.243 202.105V445.84c0 46.618-9.142 91.87-27.182 134.51-17.398 41.15-42.302 78.083-74.021 109.801-31.705 31.703-68.653 56.608-109.8 74.007a343.411 343.411 0 0 1-28.674 10.665 328.25 328.25 0 0 1-13.887 4.154 94.736 94.736 0 0 1 2.677 22.402c0 0.208 0 0.416-0.015 0.624C605.02 853.88 562.7 895.992 510.74 895.992c-51.955 0-94.274-42.11-94.595-93.99-0.017-0.207-0.017-0.416-0.017-0.623 0-7.713 0.93-15.22 2.678-22.402a328.048 328.048 0 0 1-13.886-4.154 343.121 343.121 0 0 1-28.673-10.665c-41.15-17.399-78.097-42.304-109.801-74.007-31.72-31.719-56.623-68.652-74.023-109.8-18.041-42.64-27.18-87.893-27.18-134.511v-243.657c-11.66-5.612-22.42-13.23-31.85-22.657-22-22.035-34.109-51.27-34.109-82.33 0-64.227 52.247-116.457 116.44-116.457H375.22c14.61-61.273 69.822-106.977 135.522-106.977 65.686 0 120.914 45.704 135.523 106.977h159.497c64.191 0 116.438 52.23 116.438 116.457 0 46.12-26.972 86.082-65.957 104.909zM476.007 814.849c5.39 13.92 18.924 23.798 34.734 23.798 15.813 0 29.348-9.879 34.735-23.798 1.651-4.185 2.534-8.723 2.534-13.47 0-4.137-0.673-8.114-1.923-11.82a349.547 349.547 0 0 1-35.346 1.781c-11.882 0-23.653-0.593-35.342-1.78a36.87 36.87 0 0 0-1.925 11.819c0 4.746 0.882 9.285 2.533 13.47z m34.734-876.941c-29.873 0-55.741 17.527-67.863 42.83h135.73c-12.123-25.303-37.989-42.83-67.867-42.83z m295.02 106.976H215.725c-28.88 0-52.295 23.415-52.295 52.312 0 14.433 5.855 27.502 15.316 36.98 9.463 9.46 22.531 15.314 36.979 15.314h13.664V445.84c0 125.115 81.673 231.144 194.599 267.723 27.326 8.85 56.48 13.63 86.754 13.63 30.263 0 59.43-4.78 86.757-13.63 42.802-13.856 81.112-37.701 112.19-68.78 50.915-50.915 82.41-121.25 82.41-198.944v-296.35h13.664c28.88 0 52.293-23.413 52.293-52.294 0-28.896-23.413-52.31-52.293-52.31z"  horiz-adv-x="1024" />

    
    <glyph glyph-name="605xinxi_cuowu" unicode="&#58969;" d="M512 896C230.4 896 0 665.6 0 384s230.4-512 512-512 512 230.4 512 512S793.6 896 512 896z m0-960C262.4-64 64 134.4 64 384S262.4 832 512 832s448-198.4 448-448-198.4-448-448-448zM723.2 595.2c-19.2 19.2-44.8 19.2-57.6 0L512 441.6 358.4 595.2c-12.8 12.8-38.4 12.8-57.6 0s-19.2-44.8 0-57.6L454.4 384 300.8 230.4c-19.2-19.2-19.2-44.8 0-57.6s44.8-19.2 57.6 0L512 326.4l153.6-153.6c19.2-19.2 44.8-19.2 57.6 0s19.2 44.8 0 57.6L569.6 384l153.6 153.6c12.8 12.8 12.8 38.4 0 57.6z"  horiz-adv-x="1024" />

    
    <glyph glyph-name="602xinxi_wenti" unicode="&#58970;" d="M512-128C229.23-128 0 101.23 0 384S229.23 896 512 896s512-229.23 512-512-229.23-512-512-512z m0 950.857C269.629 822.857 73.143 626.371 73.143 384c0-242.371 196.486-438.857 438.857-438.857 242.371 0 438.857 196.486 438.857 438.857 0 242.371-196.486 438.857-438.857 438.857z m130.901-428.349c-10.8-10.971-30.208-29.452-58.197-55.442-7.729-7.314-13.946-13.751-18.603-19.31-4.656-5.534-8.143-10.606-10.41-15.214-2.268-4.608-4.048-9.216-5.291-13.824-1.243-4.608-3.12-12.702-5.632-24.283-4.315-24.552-17.871-36.84-40.619-36.84-11.824 0-21.796 4.023-29.866 12.045-8.07 8.021-12.118 19.968-12.118 35.79 0 19.847 2.95 37.011 8.875 51.542 5.925 14.531 13.775 27.282 23.552 38.278 9.777 10.972 22.991 24.016 39.595 39.132 14.555 13.239 25.088 23.21 31.573 29.94a101.382 101.382 0 0 1 16.384 22.503c4.437 8.265 6.656 17.237 6.656 26.917 0 18.895-6.778 34.84-20.31 47.835-13.53 12.97-31.012 19.48-52.394 19.48-25.04 0-43.471-6.558-55.296-19.65-11.825-13.117-21.845-32.427-30.037-57.93-7.73-26.697-22.406-40.033-44.032-40.033-12.752 0-23.504 4.657-32.256 13.994-8.753 9.314-13.142 19.432-13.142 30.282 0 22.454 6.949 45.178 20.822 68.193 13.872 23.04 34.133 42.106 60.757 57.222 26.624 15.116 57.685 22.675 93.184 22.675 32.987 0 62.123-6.315 87.381-18.944 25.259-12.63 44.764-29.818 58.539-51.566 13.775-21.724 20.65-45.349 20.65-70.851 0-20.066-3.925-37.669-11.775-52.785-7.851-15.116-17.189-28.16-27.99-39.156zM507.904 197.364c14.336 0 26.405-5.096 36.181-15.238 9.777-10.167 14.678-22.675 14.678-37.547 0-16.53-5.12-29.525-15.36-38.985-10.24-9.436-22.065-14.165-35.499-14.165-13.873 0-25.99 4.656-36.352 13.994-10.362 9.338-15.53 22.382-15.53 39.156 0 14.872 4.997 27.38 15.018 37.547 10.02 10.142 22.309 15.238 36.864 15.238z"  horiz-adv-x="1024" />

    
    <glyph glyph-name="603xinxi_jingshi" unicode="&#58971;" d="M512 849.867C248.49 849.867 34.133 635.51 34.133 372S248.491-105.867 512-105.867c263.51 0 477.866 214.357 477.866 477.867S775.51 849.867 512 849.867z m0-887.16c-225.69 0-409.293 183.638-409.293 409.293 0 225.69 183.603 409.293 409.292 409.293 225.656 0 409.293-183.603 409.293-409.293 0.001-225.656-183.637-409.293-409.292-409.293zM461.573 158.136a56.948 56.948 0 1 1 113.896 0 56.948 56.948 0 1 1-113.896 0zM518.521 642.812c-31.452 0-56.95-25.497-56.95-56.947v-243.048c0-31.453 25.498-56.949 56.95-56.949 31.453 0 56.95 25.496 56.95 56.949V585.864c0 31.451-25.497 56.948-56.95 56.948z"  horiz-adv-x="1024" />

    
    <glyph glyph-name="604xinxi_chenggong" unicode="&#58972;" d="M512-128C230.4-128 0 102.4 0 384S230.4 896 512 896s512-230.4 512-512-230.4-512-512-512z m0 938.667c-234.667 0-426.667-192-426.667-426.667 0-234.667 192-426.667 426.667-426.667 234.667 0 426.667 192 426.667 426.667 0 234.667-192 426.667-426.667 426.667zM469.333 213.333c-12.8 0-21.333 4.267-29.866 12.8l-128 128c-17.067 17.067-17.067 42.667 0 59.734 17.066 17.066 42.666 17.066 59.733 0l128-128c17.067-17.067 17.067-42.667 0-59.734-8.533-8.533-17.067-12.8-29.867-12.8zM469.333 213.333c-12.8 0-21.333 4.267-29.866 12.8-17.067 17.067-17.067 42.667 0 59.734l256 256c17.066 17.066 42.666 17.066 59.733 0 17.067-17.067 17.067-42.667 0-59.734l-256-256c-8.533-8.533-17.067-12.8-29.867-12.8z"  horiz-adv-x="1024" />

    
    <glyph glyph-name="600xinxi_tishi" unicode="&#58973;" d="M187.732 739.473c-13.33 13.332-34.948 13.332-48.264 0-13.336-13.326-13.336-34.937 0-48.274l48.264-48.264c13.332-13.332 34.934-13.332 48.27 0 13.326 13.326 13.326 34.932 0 48.264l-48.27 48.274z m648.53 0l-48.27-48.274c-13.326-13.332-13.326-34.938 0-48.264 13.316-13.332 34.932-13.332 48.27 0l48.258 48.264c13.337 13.337 13.337 34.943 0 48.274-13.325 13.327-34.927 13.327-48.259 0z m-733.86-270.136H34.14c-18.851 0-34.137-15.282-34.137-34.126 0-18.855 15.282-34.138 34.137-34.138h68.263c18.85 0 34.132 15.283 34.132 34.138 0 18.844-15.281 34.126-34.132 34.126z m887.453 0H921.59c-18.85 0-34.138-15.282-34.138-34.126 0-18.855 15.287-34.138 34.138-34.138h68.264c18.85 0 34.142 15.283 34.142 34.138 0 18.844-15.293 34.126-34.142 34.126zM477.863 861.868v-68.264c0-18.855 15.282-34.13 34.132-34.13 18.844 0 34.137 15.275 34.137 34.13V861.868C546.132 880.718 530.839 896 511.995 896c-18.85 0-34.132-15.282-34.132-34.132z m-204.796-477.86c0 131.955 106.967 238.928 238.928 238.928 131.96 0 238.933-106.973 238.933-238.928 0-131.96-106.973-238.937-238.933-238.937-131.961 0-238.928 106.978-238.928 238.937z m-68.263 0c0-169.676 137.525-307.212 307.19-307.212s307.197 137.536 307.197 307.212c0 169.665-137.531 307.19-307.196 307.19s-307.191-137.525-307.191-307.19z m238.927-477.87c0-18.84 15.282-34.138 34.132-34.138h68.269c18.85 0 34.132 15.297 34.132 34.137 0 18.86-15.282 34.132-34.132 34.132h-68.27c-18.849 0-34.131-15.271-34.131-34.132z m-68.263 102.395c0-18.835 15.281-34.132 34.127-34.132h204.8c18.85 0 34.132 15.297 34.132 34.132 0 18.866-15.283 34.143-34.132 34.143h-204.8c-18.851-0.001-34.127-15.277-34.127-34.143z m0 0"  horiz-adv-x="1025" />

    
    <glyph glyph-name="chanpinguanli" unicode="&#58905;" d="M263.936 766.634667c36.010667 0 69.717333-14.037333 95.146667-39.381334a133.546667 133.546667 0 0 0 39.424-95.104v-134.442666H263.936a133.632 133.632 0 0 0-95.146667 39.381333 133.632 133.632 0 0 0-39.381333 95.061333c0 35.925333 14.037333 69.674667 39.381333 95.104a133.802667 133.802667 0 0 0 95.146667 39.381334m0 71.765333a206.293333 206.293333 0 1 1 0-412.458667h159.872a46.506667 46.506667 0 0 1 46.506667 46.464V632.149333A206.336 206.336 0 0 1 263.936 838.4z m0-552.448H398.506667v-134.485333a133.546667 133.546667 0 0 0-39.424-95.104 133.973333 133.973333 0 0 0-95.146667-39.338667 133.973333 133.973333 0 0 0-95.146667 39.338667 133.802667 133.802667 0 0 0-39.381333 95.104c0 35.968 14.037333 69.717333 39.381333 95.104a133.802667 133.802667 0 0 0 95.146667 39.381333m0 71.765333a206.208 206.208 0 0 1 0-412.416 206.250667 206.250667 0 0 1 206.378667 206.165334v159.701333a46.506667 46.506667 0 0 1-46.506667 46.549333H263.936z m481.152 408.917334c35.84 0 69.674667-14.037333 95.104-39.381334 25.429333-25.429333 39.466667-59.178667 39.466667-95.104s-14.037333-69.717333-39.466667-95.104a133.845333 133.845333 0 0 0-95.104-39.381333h-134.698667V632.149333c0 35.925333 13.994667 69.674667 39.466667 95.104a133.632 133.632 0 0 0 95.232 39.381334m0 71.765333a206.293333 206.293333 0 0 1-206.464-206.208v-159.786667a46.506667 46.506667 0 0 1 46.549333-46.464h159.744c114.005333 0 206.464 92.373333 206.464 206.250667S858.922667 838.4 745.088 838.4z m203.264-637.013333h-21.802667a26.538667 26.538667 0 0 0-23.552 17.28l-12.458666 30.378666a26.154667 26.154667 0 0 0 4.309333 28.8l15.488 15.402667a18.346667 18.346667 0 0 1 0 25.685333l-25.770667 25.6a18.176 18.176 0 0 1-25.685333 0l-15.402667-15.402666a26.026667 26.026667 0 0 0-28.8-4.224l-30.378666 12.458666a26.112 26.112 0 0 0-17.322667 23.509334v21.76a18.133333 18.133333 0 0 1-18.133333 18.090666H712.533333a18.133333 18.133333 0 0 1-18.133333-18.090666v-21.76a26.154667 26.154667 0 0 0-17.365333-23.509334l-30.250667-12.544a26.282667 26.282667 0 0 0-28.842667 4.309334l-15.445333 15.445333a18.176 18.176 0 0 1-25.685333 0l-25.685334-25.642667a18.090667 18.090667 0 0 1 0-25.6l15.445334-15.402666c6.997333-7.125333 8.96-20.010667 4.266666-28.842667l-12.501333-30.421333a26.325333 26.325333 0 0 0-23.509333-17.28h-21.802667a18.133333 18.133333 0 0 1-18.133333-18.133334v-36.224c0-9.898667 8.149333-18.133333 18.090666-18.133333h21.845334a26.197333 26.197333 0 0 0 23.381333-17.365333l12.586667-30.293334a26.197333 26.197333 0 0 0-4.266667-28.842666l-15.573333-15.402667a18.346667 18.346667 0 0 1 0-25.685333l25.770666-25.6a18.090667 18.090667 0 0 1 25.6 0l15.445334 15.402666a26.069333 26.069333 0 0 0 28.757333 4.309334l30.378667-12.586667a26.026667 26.026667 0 0 0 17.365333-23.466667v-21.674666c0-9.898667 8.149333-18.090667 18.176-18.090667h36.309333c9.813333 0 18.090667 8.149333 18.090667 18.090667v21.674666c0 9.941333 7.765333 20.48 17.322667 23.466667l30.421333 12.586667a26.154667 26.154667 0 0 0 28.8-4.309334l15.402667-15.402666a18.176 18.176 0 0 1 25.685333 0l25.6 25.6a18.176 18.176 0 0 1 0 25.685333l-15.402667 15.402667a26.112 26.112 0 0 0-4.266666 28.8l12.501333 30.336a26.112 26.112 0 0 0 23.509333 17.237333h21.76a18.304 18.304 0 0 1 18.133334 18.261333v36.224a17.962667 17.962667 0 0 1-17.962667 18.133334m-127.018667-36.181334c0-50.133333-40.490667-90.666667-90.624-90.666666a90.581333 90.581333 0 1 0 0 181.162666 90.453333 90.453333 0 0 0 90.624-90.496"  horiz-adv-x="1024" />

    
    <glyph glyph-name="liuliang" unicode="&#58907;" d="M1001.6 320h-211.2c-12.8-3.2-22.4 3.2-25.6 16l-32 102.4L633.6-32s-3.2-25.6-16-25.6h-35.2c-9.6-3.2-22.4 3.2-25.6 16l-124.8 611.2L339.2 128c-3.2-9.6-16-19.2-25.6-16h-32c-12.8-3.2-22.4 3.2-25.6 16l-64 195.2H22.4c-12.8-3.2-22.4 6.4-22.4 16V384c0 12.8 9.6 22.4 22.4 22.4h211.2c12.8 0 22.4 0 25.6-12.8l32-102.4 92.8 480s3.2 16 19.2 16H448c9.6 3.2 22.4-3.2 25.6-16l121.6-604.8 89.6 435.2c3.2 9.6 12.8 19.2 22.4 16h35.2c12.8 3.2 22.4-3.2 25.6-16l60.8-198.4h169.6c12.8 0 22.4-9.6 22.4-22.4v-41.6c3.2-9.6-6.4-19.2-19.2-19.2z"  horiz-adv-x="1024" />

    
    <glyph glyph-name="liuliangjiance" unicode="&#58908;" d="M608 604.8h233.6c12.8 0 25.6 12.8 25.6 25.6 0 16-12.8 25.6-25.6 25.6H608c-12.8 0-25.6-12.8-25.6-25.6-3.2-12.8 9.6-25.6 25.6-25.6z m310.4-73.6H704c-12.8 0-25.6-12.8-25.6-25.6 0-16 12.8-25.6 25.6-25.6h214.4c12.8 0 25.6 12.8 25.6 25.6s-12.8 25.6-25.6 25.6z m-291.2 0H608c-12.8 0-25.6-12.8-25.6-25.6 0-16 12.8-25.6 25.6-25.6h19.2c12.8 0 25.6 12.8 25.6 25.6s-12.8 25.6-25.6 25.6z m291.2-89.6H704c-12.8 0-25.6-12.8-25.6-25.6 0-16 12.8-25.6 25.6-25.6h214.4c12.8 0 25.6 12.8 25.6 25.6s-12.8 25.6-25.6 25.6z m-291.2 0H608c-12.8 0-25.6-12.8-25.6-25.6 0-16 12.8-25.6 25.6-25.6h19.2c12.8 0 25.6 12.8 25.6 25.6s-12.8 25.6-25.6 25.6z m291.2-89.6H704c-12.8 0-25.6-12.8-25.6-25.6 0-16 12.8-25.6 25.6-25.6h214.4c12.8 0 25.6 12.8 25.6 25.6s-12.8 25.6-25.6 25.6z m-291.2 0H608c-12.8 0-25.6-12.8-25.6-25.6 0-16 12.8-25.6 25.6-25.6h19.2c12.8 0 25.6 12.8 25.6 25.6s-12.8 25.6-25.6 25.6z m-236.8 124.8H320v96c0 12.8-9.6 22.4-22.4 22.4-12.8 0-22.4-9.6-22.4-22.4V448l3.2-3.2v-3.2c3.2-6.4 9.6-9.6 19.2-9.6h92.8c12.8 0 22.4 9.6 22.4 22.4 0 12.8-9.6 22.4-22.4 22.4zM297.6 672C246.4 672 198.4 649.6 160 614.4c-38.4-38.4-57.6-86.4-57.6-137.6 0-51.2 19.2-102.4 57.6-137.6 38.4-38.4 86.4-57.6 137.6-57.6 51.2 0 102.4 19.2 137.6 57.6 38.4 38.4 57.6 86.4 57.6 137.6s-19.2 102.4-57.6 137.6C400 649.6 348.8 672 297.6 672z m0-345.6c-41.6 0-76.8 16-105.6 44.8-28.8 28.8-44.8 67.2-44.8 105.6 0 41.6 16 76.8 44.8 105.6 28.8 28.8 67.2 44.8 105.6 44.8 41.6 0 76.8-16 105.6-44.8 28.8-28.8 44.8-67.2 44.8-105.6 0-41.6-16-76.8-44.8-105.6-25.6-28.8-64-44.8-105.6-44.8zM1027.2 771.2c0 32-12.8 60.8-54.4 64-19.2 3.2-38.4 3.2-57.6 3.2H163.2c-38.4 0-76.8 0-115.2-3.2C22.4 832 6.4 809.6 3.2 784c0-19.2-3.2-35.2-3.2-54.4v-604.8c0-28.8 19.2-44.8 44.8-51.2 19.2-3.2 35.2-3.2 54.4-3.2h323.2v-54.4c0-16 0-22.4-12.8-25.6H272c-6.4 0-9.6-9.6-9.6-19.2v-22.4c0-9.6 3.2-19.2 9.6-19.2h483.2c6.4 0 9.6 9.6 9.6 19.2v22.4c0 9.6-3.2 19.2-9.6 19.2h-137.6c-16 0-12.8 3.2-12.8 28.8v16 35.2h364.8c9.6 0 22.4 3.2 32 9.6 25.6 12.8 32 35.2 32 60.8v281.6c-6.4 112-6.4 230.4-6.4 348.8zM486.4 144c0 16 12.8 25.6 25.6 25.6s25.6-12.8 25.6-25.6c0-16-12.8-25.6-25.6-25.6-12.8-3.2-25.6 9.6-25.6 25.6z m480 396.8v-320c0-16-9.6-22.4-25.6-25.6H96c-28.8 0-38.4 6.4-38.4 35.2v131.2 172.8 185.6c0 25.6 6.4 32 32 32h844.8c19.2 0 25.6-6.4 25.6-25.6v-92.8c6.4-28.8 6.4-60.8 6.4-92.8z"  horiz-adv-x="1033" />

    
    <glyph glyph-name="lishijilu" unicode="&#58909;" d="M537.6 870.4c-179.2 0-339.2-96-419.2-246.4L0 742.4v-332.8h332.8l-144 144C256 681.6 384 768 537.6 768c211.2 0 384-172.8 384-384s-172.8-384-384-384c-169.6 0-307.2 108.8-364.8 256H67.2c57.6-204.8 246.4-358.4 470.4-358.4C809.6-102.4 1024 118.4 1024 384S803.2 870.4 537.6 870.4z m-76.8-256V352l240-144 41.6 67.2-204.8 121.6V611.2h-76.8z"  horiz-adv-x="1024" />

    
    <glyph glyph-name="lujingchaxun" unicode="&#58910;" d="M976 16c-67.2 80-137.6 160-204.8 240-12.8 16-12.8 22.4-3.2 38.4 38.4 57.6 57.6 121.6 57.6 188.8C832 716.8 659.2 892.8 419.2 896c-9.6 0-19.2-3.2-32-3.2C182.4 880 16 694.4 22.4 489.6c9.6-294.4 326.4-480 588.8-342.4 16 9.6 25.6 6.4 38.4-6.4 64-76.8 131.2-153.6 195.2-230.4 16-16 32-32 54.4-35.2 38.4-6.4 70.4 6.4 89.6 38.4 19.2 32 16 67.2-12.8 102.4zM140.8 380.8c-3.2-3.2-3.2-6.4-9.6-3.2-28.8 83.2-32 166.4 3.2 246.4C233.6 832 508.8 876.8 662.4 704c3.2-3.2 9.6-6.4 12.8-12.8 3.2-16-9.6-9.6-16-12.8l-105.6-9.6c-3.2 0-6.4 0-12.8-3.2l28.8-38.4-19.2-19.2c-12.8-12.8-22.4-9.6-32 3.2-12.8 19.2-28.8 35.2-44.8 51.2-9.6 9.6-19.2 19.2-28.8 25.6-32 19.2-64 19.2-86.4-3.2-19.2-19.2-25.6-51.2-9.6-83.2 12.8-25.6 35.2-44.8 54.4-67.2 25.6-28.8 51.2-57.6 73.6-86.4 6.4-6.4 22.4-16 9.6-25.6-12.8-9.6-19.2 6.4-25.6 12.8-38.4 41.6-73.6 83.2-108.8 124.8-16 16-32 28.8-54.4 35.2-48 19.2-86.4-19.2-76.8-67.2 3.2-19.2 16-38.4 28.8-54.4 38.4-41.6 73.6-86.4 112-128 6.4-6.4 19.2-12.8 6.4-22.4-9.6-6.4-16 3.2-19.2 9.6l-57.6 67.2c-51.2 54.4-115.2 44.8-150.4-19.2z m560-38.4c-108.8-192-396.8-208-528-28.8-6.4 6.4-12.8 12.8-12.8 22.4 19.2 9.6 38.4 16 54.4 32 12.8 9.6 25.6 6.4 35.2-6.4 16-19.2 32-35.2 48-54.4 12.8-16 25.6-28.8 44.8-38.4 25.6-9.6 51.2-6.4 70.4 12.8 16 19.2 19.2 44.8 6.4 70.4-19.2 32-48 60.8-70.4 89.6-16 19.2-32 41.6-51.2 57.6l-6.4 6.4c-6.4 9.6-9.6 19.2 0 25.6 9.6 9.6 19.2 0 25.6-6.4 22.4-19.2 41.6-44.8 60.8-67.2 19.2-22.4 38.4-41.6 54.4-64 3.2-6.4 9.6-9.6 16-12.8 28.8-22.4 64-22.4 86.4-3.2 22.4 22.4 25.6 54.4 3.2 86.4-32 44.8-70.4 83.2-108.8 128-9.6 12.8-32 25.6-16 41.6s28.8-6.4 41.6-19.2c16-12.8 25.6-32 41.6-44.8 32-25.6 60.8-28.8 92.8-3.2 28.8 22.4 28.8 22.4 60.8-3.2 12.8 28.8 16 57.6 25.6 86.4 3.2 9.6 3.2 25.6 22.4 25.6 57.6-108.8 67.2-217.6 3.2-332.8z"  horiz-adv-x="1024" />

    
    <glyph glyph-name="lujingfenxi" unicode="&#58911;" d="M940.8 201.6c-54.4 9.6-108.8 25.6-160 54.4-22.4 16-44.8 32-44.8 60.8 0 6.4-3.2 9.6-9.6 9.6-35.2 6.4-44.8 0-38.4-38.4 3.2-22.4 16-38.4 35.2-54.4 25.6-22.4 57.6-32 89.6-44.8 41.6-16 89.6-22.4 128-44.8 38.4-19.2 41.6-44.8 16-76.8-38.4-44.8-86.4-70.4-144-83.2-115.2-22.4-227.2-9.6-339.2 25.6-51.2 16-83.2 6.4-108.8-35.2 0-3.2-3.2-3.2-6.4-9.6 41.6-12.8 76.8-25.6 115.2-35.2 115.2-28.8 233.6-41.6 352-9.6 70.4 19.2 131.2 54.4 172.8 118.4 48 73.6 32 147.2-57.6 163.2zM502.4 384c0 102.4-64 201.6-153.6 236.8-96 38.4-201.6 19.2-275.2-57.6S-19.2 384 25.6 284.8c51.2-115.2 134.4-211.2 217.6-304 9.6-9.6 12.8-9.6 22.4 0 76.8 89.6 153.6 179.2 208 284.8 16 38.4 32 76.8 28.8 118.4zM416 313.6c-35.2-83.2-96-150.4-153.6-220.8-9.6-9.6-12.8-6.4-19.2 0C185.6 160 128 230.4 89.6 313.6c-9.6 22.4-16 44.8-16 67.2 0 76.8 48 147.2 115.2 172.8 67.2 25.6 137.6 12.8 192-41.6 51.2-54.4 64-128 35.2-198.4zM694.4 387.2c6.4-6.4 12.8-6.4 19.2 0 70.4 60.8 134.4 124.8 169.6 211.2C934.4 723.2 838.4 864 707.2 864c-137.6 0-236.8-153.6-176-281.6 35.2-80 99.2-137.6 163.2-195.2zM704 790.4c92.8 0 150.4-96 108.8-176-22.4-44.8-60.8-80-96-112-9.6-6.4-16-6.4-22.4 0-35.2 32-73.6 64-96 108.8-44.8 80 12.8 179.2 105.6 179.2zM704 604.8c28.8 0 51.2 25.6 51.2 54.4 0 32-25.6 57.6-54.4 54.4-28.8 0-51.2-25.6-51.2-57.6 0-28.8 22.4-51.2 54.4-51.2zM249.6 489.6c-60.8 0-105.6-51.2-105.6-112s51.2-112 108.8-112c60.8 0 108.8 51.2 108.8 112-3.2 64-51.2 115.2-112 112z m0-147.2c-19.2 3.2-32 16-35.2 35.2 0 19.2 19.2 38.4 35.2 38.4 22.4 0 38.4-16 38.4-38.4 0-19.2-19.2-38.4-38.4-35.2z"  horiz-adv-x="1024" />

    
    <glyph glyph-name="yundongguiji" unicode="&#58912;" d="M892.08896 556.8c9.6-12.8 19.2-25.6 28.8-41.6 9.6 16 22.4 35.2 32 51.2 16 25.6 35.2 44.8 44.8 76.8 19.2 64-25.6 112-86.4 112-3.2 0-9.6 0-12.8-3.2-16-3.2-28.8-12.8-38.4-25.6l-19.2-28.8c-12.8-28.8-3.2-60.8 9.6-80 16-16 28.8-38.4 41.6-60.8m-12.8 128c6.4 19.2 19.2 22.4 38.4 32 57.6 0 60.8-80 6.4-89.6-28.8-6.4-51.2 28.8-44.8 57.6m0 0M274.48896 214.4c35.2 48 67.2 83.2 86.4 147.2 44.8 140.8-44.8 256-182.4 256-12.8-6.4-28.8-3.2-41.6-6.4-32-9.6-64-28.8-83.2-51.2-16-19.2-32-41.6-41.6-67.2-25.6-64-6.4-131.2 19.2-176 32-51.2 64-102.4 99.2-150.4 19.2-25.6 35.2-54.4 54.4-80h3.2c12.8 19.2 22.4 38.4 35.2 54.4 16 22.4 32 48 51.2 73.6M98.48896 451.2c9.6 28.8 32 51.2 57.6 64 9.6 3.2 19.2 3.2 28.8 6.4 64 0 118.4-64 92.8-134.4-12.8-35.2-38.4-57.6-80-64-64-12.8-118.4 64-99.2 128m0 0M940.08896 259.2c-48 32-92.8 60.8-140.8 92.8-16 9.6-32 22.4-48 32-32 16-64 35.2-96 51.2-16 9.6-38.4 19.2-51.2 32 64 12.8 128 12.8 195.2 25.6 35.2 3.2 67.2 6.4 102.4 12.8-6.4 6.4-19.2 28.8-28.8 32-9.6 0-16 0-25.6-3.2-32-3.2-60.8-3.2-92.8-6.4-25.6-3.2-48 0-73.6-3.2-70.4-6.4-144-12.8-214.4-19.2 32-25.6 64-51.2 96-73.6 35.2-22.4 73.6-41.6 105.6-64 41.6-32 86.4-67.2 128-99.2v-3.2c-102.4-6.4-208-12.8-310.4-19.2-22.4 0-41.6-3.2-64-3.2-25.6-3.2-48-6.4-73.6-9.6-12.8-3.2-22.4-3.2-35.2-6.4-35.2-57.6-67.2-115.2-102.4-169.6v-3.2c115.2 25.6 233.6 44.8 348.8 70.4 64 9.6 124.8 22.4 188.8 32 89.6 16 179.2 32 268.8 44.8-19.2 22.4-48 41.6-76.8 57.6m0 0"  horiz-adv-x="1026" />

    
    <glyph glyph-name="shishijiance" unicode="&#58913;" d="M1024 412.8c-6.4 124.8-60.8 243.2-150.4 332.8C784 835.2 665.6 886.4 540.8 896h-57.6C358.4 886.4 240 835.2 150.4 745.6 60.8 656 9.6 537.6 0 412.8v-57.6c6.4-124.8 60.8-243.2 150.4-332.8 89.6-89.6 208-140.8 332.8-150.4h57.6c124.8 6.4 243.2 60.8 332.8 150.4 89.6 89.6 140.8 208 150.4 332.8v57.6zM396.8 633.6c28.8 12.8 57.6 22.4 86.4 25.6v-124.8c-60.8-12.8-108.8-60.8-121.6-121.6H236.8c3.2 41.6 19.2 83.2 41.6 118.4 12.8-6.4 25.6-9.6 38.4-9.6 48 0 83.2 38.4 83.2 83.2 0 12.8 0 19.2-3.2 28.8zM230.4 608c0-12.8 3.2-22.4 6.4-35.2-32-48-51.2-102.4-57.6-160H57.6C70.4 640 256 825.6 483.2 838.4v-124.8c-44.8-3.2-86.4-16-124.8-35.2-12.8 6.4-28.8 12.8-44.8 12.8-44.8 0-83.2-38.4-83.2-83.2z m131.2-252.8c12.8-60.8 60.8-108.8 121.6-121.6v-124.8c-128 12.8-233.6 115.2-246.4 246.4h124.8z m121.6-300.8v-124.8C256-57.6 70.4 128 57.6 355.2h124.8c12.8-160 140.8-288 300.8-300.8z m0 300.8v-64c-32 9.6-54.4 35.2-64 64h64z m0 121.6v-64h-64c9.6 32 32 54.4 64 64z m57.6-64v64c32-9.6 54.4-35.2 64-64h-64z m188.8-57.6c6.4-22.4 25.6-38.4 44.8-48-32-108.8-124.8-185.6-236.8-198.4v124.8c60.8 12.8 108.8 60.8 121.6 121.6h70.4z m3.2 57.6h-70.4c-12.8 60.8-60.8 108.8-121.6 121.6V659.2c112-12.8 204.8-89.6 236.8-198.4-22.4-9.6-38.4-25.6-44.8-48z m-192-121.6v64h64c-9.6-32-32-54.4-64-64z m0-236.8c70.4 6.4 134.4 32 185.6 76.8 25.6 22.4 51.2 51.2 67.2 80 19.2 28.8 32 60.8 38.4 92.8 25.6 6.4 48 28.8 54.4 51.2h76.8C953.6 128 768-57.6 540.8-70.4v124.8z m256 502.4c-19.2 28.8-41.6 57.6-67.2 80-54.4 44.8-118.4 70.4-185.6 76.8V838.4c224-12.8 409.6-198.4 422.4-425.6h-76.8c-9.6 25.6-28.8 44.8-54.4 51.2-9.6 35.2-22.4 64-38.4 92.8z"  horiz-adv-x="1024" />

    
    <glyph glyph-name="xinxihuoqu" unicode="&#58914;" d="M0 896v-1024h1024V896H0z m944-944h-864v864h867.2v-864zM905.6 777.6H118.4V384h787.2V777.6z m-38.4-355.2H156.8V739.2h710.4v-316.8zM236.8 697.6h236.8v-80H236.8V697.6z m313.6 0h236.8v-80h-236.8V697.6z m0-156.8h236.8v-80h-236.8v80z m-313.6 0h236.8v-80H236.8v80z m-118.4-195.2H512v-38.4H118.4v38.4z m0-80h275.2v-38.4H118.4v38.4z m0-80h355.2v-38.4H118.4v38.4z m0-76.8h198.4v-38.4H118.4v38.4z m0-80h313.6v-38.4H118.4v38.4z m630.4 198.4h-198.4v-118.4h198.4v-80l156.8 137.6-156.8 137.6v-76.8z"  horiz-adv-x="1024" />

    
    <glyph glyph-name="tongjifenxi" unicode="&#58915;" d="M998.4 96H0v-128H1001.6c16 0 22.4 3.2 22.4 19.2 0 25.6-3.2 54.4 0 83.2 0 22.4-6.4 25.6-25.6 25.6zM704 480v-297.6c0-16 3.2-25.6 22.4-22.4 25.6 0 54.4 3.2 80 0 19.2 0 28.8 3.2 28.8 25.6v227.2V774.4c-3.2 19.2-6.4 25.6-25.6 25.6-25.6-3.2-54.4-3.2-83.2 0-19.2 0-22.4-6.4-22.4-25.6V480zM320 384v-204.8c0-16 3.2-22.4 22.4-22.4h89.6c12.8 0 19.2 3.2 19.2 16V585.6c-3.2 19.2-6.4 22.4-19.2 22.4h-89.6c-19.2 0-22.4-3.2-22.4-19.2V384zM531.2 160h89.6c16 0 19.2 3.2 19.2 19.2v105.6 112c0 12.8-3.2 19.2-16 16h-92.8c-12.8 0-19.2-3.2-16-16v-220.8c-3.2-12.8 3.2-16 16-16zM128 176c0-12.8 3.2-16 16-16h96c12.8 0 16 3.2 16 16V256v83.2c0 9.6-3.2 12.8-16 12.8h-96c-12.8 0-16-3.2-16-16v-160z"  horiz-adv-x="1024" />

    
    <glyph glyph-name="liuliangtongji" unicode="&#58916;" d="M32-102.4h960c19.2 0 32 12.8 32 32 0 16-16 32-32 32H64V838.4c0 16-16 32-32 32-19.2 0-32-12.8-32-32v-912c0-16 16-28.8 32-28.8m0 0M188.8 134.4c38.4 0 67.2 32 67.2 73.6 0 9.6-3.2 19.2-6.4 28.8l134.4 166.4c6.4-3.2 12.8-3.2 19.2-3.2 19.2 0 38.4 9.6 51.2 22.4l128-67.2c0-41.6 32-73.6 67.2-73.6 38.4 0 67.2 32 67.2 73.6v3.2l176 163.2c9.6-3.2 19.2-6.4 28.8-6.4 38.4 0 67.2 32 67.2 73.6s-32 73.6-67.2 73.6c-38.4 0-67.2-32-67.2-73.6 0-9.6 0-16 3.2-22.4l-166.4-153.6c-12.8 9.6-25.6 16-41.6 16-19.2 0-35.2-6.4-48-22.4l-128 73.6c-3.2 38.4-32 67.2-67.2 67.2-38.4 0-67.2-32-67.2-73.6 0-9.6 3.2-22.4 6.4-32l-131.2-163.2c-6.4 3.2-16 3.2-22.4 3.2-38.4 0-67.2-32-67.2-73.6-6.4-38.4 25.6-73.6 64-73.6m0 0"  horiz-adv-x="1024" />

    
    <glyph glyph-name="qushi" unicode="&#58917;" d="M204.8-128H102.4v179.2h102.4V-128z m236.8 0h-102.4v300.8h102.4V-128z m236.8 0H576V323.2h102.4V-128z m240 0h-102.4V473.6h102.4V-128z m-96 883.2c-3.2-3.2-3.2-3.2-3.2-6.4 0 0 0-3.2-3.2-3.2-3.2-6.4-9.6-12.8-16-22.4-6.4-9.6-16-22.4-28.8-35.2-9.6-12.8-22.4-25.6-38.4-41.6-12.8-16-28.8-32-48-48l-25.6-25.6-12.8-12.8c-3.2-3.2-9.6-9.6-16-12.8-9.6-9.6-19.2-16-28.8-25.6-6.4-3.2-9.6-9.6-16-12.8-6.4-3.2-9.6-9.6-16-12.8-3.2-3.2-6.4-3.2-9.6-6.4-3.2-3.2-6.4-3.2-9.6-6.4-6.4-3.2-9.6-6.4-16-12.8-3.2-3.2-6.4-3.2-9.6-6.4l-9.6-6.4c-6.4-3.2-12.8-6.4-16-12.8-6.4-3.2-12.8-6.4-16-9.6-6.4-3.2-12.8-6.4-16-9.6-6.4-3.2-12.8-6.4-16-9.6-3.2 3.2-6.4 0-9.6 0-3.2-3.2-6.4-3.2-9.6-6.4-12.8-6.4-22.4-12.8-35.2-19.2-12.8-6.4-22.4-12.8-35.2-16-12.8-6.4-22.4-9.6-35.2-16-3.2-3.2-9.6-6.4-16-6.4-3.2 0-6.4-3.2-9.6-3.2-3.2 0-6.4-3.2-9.6-3.2-9.6-3.2-22.4-9.6-32-12.8l-28.8-9.6c0-3.2-3.2-3.2-6.4-3.2s-3.2 0-6.4-3.2c-3.2 0-9.6-3.2-12.8-3.2-3.2 0-9.6-3.2-12.8-3.2-3.2 0-3.2 0-6.4-3.2h-6.4c-9.6-3.2-16-3.2-22.4-6.4-6.4-3.2-12.8-3.2-19.2-3.2-22.4-6.4-38.4-9.6-38.4-9.6s12.8 3.2 35.2 9.6c6.4 0 12.8 3.2 19.2 6.4 6.4 3.2 12.8 3.2 22.4 6.4 3.2 0 3.2 0 6.4 3.2 3.2 0 3.2 0 6.4 3.2 3.2 0 9.6 3.2 12.8 3.2 3.2 0 9.6 3.2 12.8 3.2 3.2 0 3.2 0 6.4 3.2 3.2 0 3.2 3.2 6.4 3.2 9.6 3.2 19.2 6.4 28.8 12.8 9.6 3.2 19.2 9.6 32 12.8 3.2 0 6.4 3.2 9.6 3.2 3.2 0 6.4 3.2 9.6 3.2 6.4 3.2 9.6 6.4 16 6.4 9.6 6.4 22.4 9.6 32 16 12.8 6.4 22.4 12.8 35.2 19.2 12.8 6.4 22.4 12.8 35.2 19.2 3.2 3.2 6.4 3.2 9.6 6.4 3.2 3.2 6.4 3.2 9.6 6.4 6.4 3.2 12.8 6.4 16 9.6 6.4 3.2 9.6 6.4 16 12.8 6.4 3.2 9.6 6.4 16 12.8 6.4 3.2 9.6 9.6 16 12.8l9.6 6.4c3.2 3.2 6.4 3.2 9.6 6.4 6.4 3.2 9.6 9.6 16 12.8 3.2 3.2 6.4 3.2 6.4 6.4 3.2 3.2 6.4 3.2 6.4 6.4 6.4 3.2 9.6 9.6 16 12.8 6.4 3.2 9.6 9.6 16 12.8 9.6 9.6 19.2 16 28.8 25.6l12.8 12.8 12.8 12.8 25.6 25.6c16 16 32 32 44.8 48 12.8 16 25.6 28.8 35.2 41.6 9.6 12.8 19.2 25.6 25.6 35.2 6.4 9.6 12.8 16 16 22.4 0 0 0 3.2 3.2 3.2v3.2 3.2l28.8-25.6z m16-179.2l-51.2 163.2-172.8-16 137.6 86.4L889.6 896 864 736l-25.6-160z"  horiz-adv-x="1024" />

    
    <glyph glyph-name="tongjibiaodan" unicode="&#58918;" d="M480-12.8H169.6c-67.2 0-92.8 28.8-92.8 92.8v448c0 44.8 9.6 54.4 54.4 57.6h118.4c41.6 0 51.2 12.8 51.2 54.4V761.6c0 38.4 12.8 48 51.2 48h230.4c67.2 0 92.8-28.8 92.8-92.8v-220.8c0-54.4 0-54.4 54.4-54.4 16 0 19.2 3.2 19.2 19.2V726.4c0 92.8-64 156.8-156.8 156.8h-268.8c-35.2 0-64-9.6-89.6-32C163.2 787.2 96 720 32 649.6c-22.4-22.4-32-51.2-32-86.4v-502.4c0-86.4 64-150.4 150.4-150.4H448c51.2 0 51.2 0 51.2 51.2 3.2 19.2-3.2 25.6-19.2 25.6zM876.8-35.2c-41.6 38.4-80 80-118.4 118.4-12.8 12.8-19.2 25.6-22.4 41.6-9.6 54.4-22.4 108.8-32 163.2-3.2 22.4-9.6 22.4-28.8 16-99.2-32-163.2-134.4-147.2-233.6 16-112 105.6-188.8 214.4-188.8 51.2 0 92.8 16 134.4 48 12.8 12.8 12.8 22.4 0 35.2zM972.8 252.8c-9.6 9.6-12.8 6.4-22.4 0-41.6-44.8-86.4-86.4-128-128-9.6-9.6-9.6-16 0-25.6 48-44.8 92.8-92.8 137.6-137.6 80 67.2 86.4 214.4 12.8 291.2zM537.6 547.2H236.8c-51.2 0-51.2 0-51.2-51.2 0-22.4 6.4-22.4 25.6-22.4h294.4c54.4 0 54.4 0 54.4 54.4 3.2 16-6.4 19.2-22.4 19.2zM502.4 361.6H236.8c-51.2 0-48 0-51.2-51.2 0-22.4 6.4-25.6 25.6-25.6h249.6c57.6 0 57.6 0 54.4 57.6 3.2 16 0 19.2-12.8 19.2zM752 348.8v-6.4c9.6-54.4 22.4-105.6 32-163.2 48 48 92.8 96 137.6 140.8 12.8 12.8 9.6 19.2-3.2 28.8-38.4 28.8-80 48-128 48-44.8 3.2-44.8 3.2-38.4-48zM211.2 99.2h185.6c57.6 0 54.4 0 54.4 57.6 0 12.8-3.2 19.2-19.2 19.2H243.2c-54.4 0-54.4 0-54.4-54.4 0-22.4 6.4-22.4 22.4-22.4z"  horiz-adv-x="1024" />

    
    <glyph glyph-name="chakou" unicode="&#58919;" d="M806.4 396.8c-156.8 0-297.6-70.4-393.6-179.2V592H512c25.6 0 41.6 28.8 25.6 51.2L371.2 880c-12.8 19.2-41.6 19.2-54.4 0l-160-236.8a32 32 0 0 1 25.6-51.2h99.2V-128H416c0 217.6 176 393.6 393.6 393.6 35.2 0 64 28.8 64 64 0 38.4-28.8 67.2-67.2 67.2z"  horiz-adv-x="1024" />

    
    <glyph glyph-name="zhishu" unicode="&#58920;" d="M33.495327 334.554517c6.380062 9.570093 12.760125 19.140187 19.140187 25.520249l290.292835 290.292835c12.760125 12.760125 19.140187 12.760125 31.900311 0l220.11215-220.112149c15.950156-15.950156 22.330218-15.950156 38.280374 0 89.320872 92.510903 181.831776 181.831776 271.152648 271.152648 12.760125 12.760125 19.140187 12.760125 31.900311 0 19.140187-22.330218 38.280374-41.470405 57.420561-63.800623 3.190031 3.190031 6.380062 3.190031 9.570094 6.380062V876.859813c0 12.760125-3.190031 15.950156-15.950156 15.950156h-242.442368c35.090343-31.900312 60.610592-60.610592 86.130841-86.130841 12.760125-12.760125 15.950156-19.140187 0-35.090343l-200.971962-200.971963c-12.760125-12.760125-19.140187-12.760125-35.090343 0-73.370717 76.560748-149.931464 149.931464-223.302181 223.302181-12.760125 12.760125-19.140187 12.760125-31.900311 0L33.495327 487.676012s-9.570093-6.380062-9.570093-12.760124v-133.981309c3.190031-3.190031 6.380062-6.380062 9.570093-6.380062zM1000.074766 462.155763c0 15.950156-6.380062 22.330218-22.330218 22.330218h-162.691588c-19.140187 0-22.330218-6.380062-22.330219-22.330218v-561.445483c0-19.140187 6.380062-25.520249 25.52025-25.520249h156.311526c15.950156 0 22.330218 3.190031 22.330218 22.330218 3.190031 188.211838 3.190031 376.423676 3.190031 564.635514zM464.149533 328.174455H301.457944c-15.950156 0-22.330218-6.380062-22.330218-22.330218v-411.514019c0-15.950156 3.190031-22.330218 19.140187-22.330218h165.88162c15.950156 0 19.140187 3.190031 19.140187 19.140187v414.70405c3.190031 19.140187-3.190031 25.520249-19.140187 22.330218zM722.542056 226.093458h-159.501558c-15.950156 0-25.520249-3.190031-22.330218-22.330218v-309.433022c0-15.950156 6.380062-22.330218 22.330218-22.330218h162.691589c19.140187 0 22.330218 6.380062 22.330218 22.330218v153.121495 153.121496c-3.190031 22.330218-9.570093 28.71028-25.520249 25.520249zM228.087227-0.398754v102.080997c0 15.950156-3.190031 22.330218-19.140187 22.330218H43.065421c-15.950156 0-19.140187-3.190031-19.140187-19.140187v-210.542056c0-15.950156 6.380062-19.140187 19.140187-19.140187h165.881619c19.140187 0 19.140187 6.380062 19.140187 22.330218v102.080997z"  horiz-adv-x="1024" />

    
    <glyph glyph-name="tongjibaobiao" unicode="&#58921;" d="M995.2 787.2H640c-73.6 0-64-6.4-64 64 0 16 3.2 32-9.6 41.6h-112c-12.8-12.8-9.6-28.8-9.6-41.6 0-67.2 6.4-64-64-64H41.6c-12.8 0-28.8 3.2-41.6-9.6v-112c0-3.2 3.2-6.4 9.6-9.6 35.2-12.8 35.2-12.8 35.2-51.2v-473.6c0-44.8 9.6-54.4 54.4-54.4h256c6.4 0 12.8 0 22.4-3.2-9.6-9.6-19.2-16-28.8-22.4-44.8-35.2-89.6-67.2-134.4-102.4-32-25.6-28.8-51.2 9.6-70.4 3.2 0 3.2-3.2 6.4-3.2h6.4c16 6.4 32 16 44.8 28.8 70.4 57.6 137.6 112 208 169.6 12.8 9.6 22.4 12.8 35.2 0 48-41.6 96-80 147.2-118.4 35.2-28.8 64-60.8 108.8-80h6.4c38.4 16 54.4 48 9.6 80-25.6 19.2-51.2 41.6-76.8 64-25.6 22.4-54.4 44.8-83.2 70.4h294.4c41.6 0 48 6.4 51.2 48v25.6V627.2c0 19.2 3.2 35.2 25.6 35.2 16 0 22.4 9.6 22.4 28.8V761.6c-6.4 19.2-16 25.6-35.2 25.6z m-89.6-611.2c0-19.2-3.2-22.4-22.4-22.4H137.6c-19.2 0-22.4 3.2-22.4 22.4V640c0 19.2 3.2 22.4 22.4 22.4h742.4c19.2 0 22.4-3.2 22.4-22.4 3.2-153.6 3.2-307.2 3.2-464zM435.2 441.6c16 0 19.2 3.2 16 19.2-9.6 73.6-73.6 128-147.2 128-70.4 0-134.4-48-153.6-118.4-16-67.2 22.4-160 76.8-188.8l28.8-9.6c16-3.2 25.6-3.2 22.4 19.2-3.2 22.4 0 41.6 0 64V416c-3.2 19.2 3.2 28.8 25.6 25.6 44.8-3.2 86.4 0 131.2 0zM496 384H352c-12.8 0-16-3.2-16-16v-140.8c0-9.6 3.2-16 16-12.8 73.6 6.4 150.4 83.2 156.8 156.8 0 9.6 0 12.8-12.8 12.8zM771.2 556.8c-22.4-3.2-41.6 0-64 0h-51.2c-38.4 0-32 6.4-35.2-35.2 0-19.2 3.2-25.6 22.4-25.6 41.6 3.2 83.2 3.2 124.8 0 25.6 0 25.6 9.6 25.6 28.8 0 19.2 6.4 35.2-22.4 32zM777.6 326.4h-134.4c-12.8 0-19.2-3.2-16-16v-25.6c0-12.8 6.4-16 16-16h140.8c12.8 0 16 3.2 16 16v25.6c-3.2 12.8-9.6 16-22.4 16zM777.6 441.6h-134.4c-16 0-19.2-6.4-19.2-19.2v-22.4c0-12.8 3.2-16 16-16h140.8c12.8 0 19.2 3.2 16 16v19.2c0 19.2-3.2 22.4-19.2 22.4z"  horiz-adv-x="1030" />

    
    <glyph glyph-name="luxian" unicode="&#58922;" d="M700.8 595.2h166.4L617.6 896l-252.8-300.8h169.6v-217.6H156.8V-128h166.4V204.8h377.6V595.2z"  horiz-adv-x="1024" />

    
    <glyph glyph-name="liuliangtongji1" unicode="&#58923;" d="M854.4 233.6c0 6.4 0 9.6-3.2 16v9.6c-6.4 25.6-19.2 51.2-19.2 51.2L553.6 864c-41.6 70.4-76.8 0-76.8 0L201.6 297.6c-12.8-28.8-12.8-54.4-12.8-54.4-3.2-16-3.2-28.8-3.2-44.8 0-179.2 150.4-326.4 336-326.4s336 147.2 336 326.4c-3.2 12.8-3.2 22.4-3.2 35.2m-332.8-9.6c-99.2 86.4-195.2 80-262.4 54.4l262.4 531.2 252.8-518.4c22.4-48 22.4-80 22.4-92.8-67.2-44.8-166.4-70.4-275.2 25.6m0 0z"  horiz-adv-x="1024" />

    
    <glyph glyph-name="luxianchaxun" unicode="&#58924;" d="M371.2 841.6C172.8 841.6 6.4 668.8 6.4 454.4c0-108.8 41.6-204.8 108.8-275.2l236.8-249.6c12.8-12.8 35.2-12.8 48 0l236.8 249.6c67.2 70.4 108.8 169.6 108.8 275.2-6.4 214.4-172.8 387.2-374.4 387.2z m0-508.8c-80 0-144 64-144 144s64 144 144 144 144-64 144-144-64-144-144-144zM707.2-83.2h-256l64 64h128l64-64zM1027.2 249.6c0-67.2-25.6-128-70.4-172.8l-153.6-153.6c-9.6-9.6-22.4-9.6-32 0l-153.6 156.8c-3.2 3.2-3.2 3.2-3.2 6.4l64 67.2c16 16 28.8 32 41.6 48 16-19.2 41.6-32 70.4-32 51.2 0 92.8 41.6 92.8 89.6 0 48-41.6 89.6-92.8 89.6 9.6 38.4 16 76.8 16 115.2v28.8c121.6-9.6 220.8-112 220.8-243.2z"  horiz-adv-x="1027" />

    
    <glyph glyph-name="renshutongji" unicode="&#58925;" d="M841.6 320c60.8 32 99.2 92.8 99.2 163.2 0 102.4-83.2 185.6-185.6 185.6-102.4 0-185.6-83.2-185.6-185.6 0-70.4 41.6-134.4 99.2-163.2-32-12.8-64-28.8-89.6-51.2-3.2 3.2-6.4 9.6-9.6 12.8-38.4 44.8-89.6 80-147.2 96 70.4 35.2 118.4 108.8 118.4 192a214.4 214.4 0 0 1-428.8 0c0-83.2 48-156.8 118.4-192-131.2-41.6-224-163.2-224-307.2v-3.2h38.4v3.2c0 156.8 128 281.6 281.6 281.6 86.4 0 166.4-38.4 217.6-102.4 9.6-9.6 16-22.4 22.4-35.2 25.6-41.6 41.6-92.8 41.6-147.2v-3.2h38.4v3.2c0 60.8-16 115.2-44.8 163.2 41.6 38.4 92.8 60.8 153.6 60.8 124.8 0 224-99.2 224-224v-3.2h38.4v3.2c0 118.4-73.6 217.6-176 252.8zM150.4 566.4c0 96 80 176 176 176s176-80 176-176-80-176-176-176c-96 3.2-176 80-176 176zM608 483.2c0 80 64 147.2 147.2 147.2 80 0 147.2-64 147.2-147.2 0-80-64-147.2-147.2-147.2-80 0-147.2 67.2-147.2 147.2z"  horiz-adv-x="1024" />

    
    <glyph glyph-name="tongji" unicode="&#58926;" d="M742.4-41.6h6.4c-51.2 6.4-80 25.6-92.8 48h-265.6c-16-22.4-41.6-41.6-92.8-48-16 0-28.8-12.8-28.8-28.8s12.8-28.8 28.8-28.8h444.8c16 0 28.8 12.8 28.8 28.8 3.2 16-12.8 28.8-28.8 28.8z m224 908.8H76.8C32 867.2 0 832 0 790.4v-672c0-35.2 32-64 67.2-64h908.8c35.2 0 64 28.8 67.2 64v672c0 41.6-32 76.8-76.8 76.8zM582.4 128c0-9.6-6.4-16-16-16h-86.4c-9.6 0-16 6.4-16 16v12.8c0 9.6 6.4 16 16 16h86.4c9.6 0 16-6.4 16-16v-12.8z m400 102.4c0-6.4-6.4-12.8-12.8-12.8H76.8c-6.4 0-12.8 6.4-12.8 12.8V790.4c0 6.4 6.4 12.8 12.8 12.8H969.6c6.4 0 12.8-6.4 12.8-12.8v-560z m-243.2 304h32c0 9.6 0 22.4-3.2 32l-28.8-32z m-76.8 188.8l-105.6-105.6v-32l128 128c-9.6 3.2-16 6.4-22.4 9.6z m-48 19.2l-57.6-57.6v-32L640 736c-9.6 3.2-16 3.2-25.6 6.4z m-57.6 9.6v-35.2l32 32c-12.8 0-22.4 3.2-32 3.2z m83.2-217.6L745.6 640c-3.2 6.4-9.6 12.8-12.8 19.2l-128-128h35.2v3.2z m76.8 144c-3.2 3.2-6.4 6.4-6.4 9.6l-9.6 9.6-144-144v-16h16l144 140.8z m-9.6-144l60.8 60.8c-3.2 9.6-6.4 16-9.6 25.6l-83.2-83.2h32v-3.2z m-188.8 179.2C396.8 713.6 297.6 614.4 297.6 496c0-121.6 99.2-217.6 217.6-217.6 121.6 0 217.6 99.2 217.6 217.6h-217.6V713.6h3.2z"  horiz-adv-x="1043" />

    
    <glyph glyph-name="icon-test" unicode="&#58906;" d="M832 832h-64v32c0 17.673-14.327 32-32 32s-32-14.327-32-32v-32h-384v32c0 17.673-14.327 32-32 32s-32-14.327-32-32v-32h-64c-70.692 0-128-57.308-128-128v-640c0-70.692 57.308-128 128-128h640c70.692 0 128 57.308 128 128v640c0 70.692-57.308 128-128 128zM896 64c0-35.346-28.654-64-64-64h-640c-35.346 0-64 28.654-64 64v640c0 35.346 28.654 64 64 64h64v-32c0-17.673 14.327-32 32-32s32 14.327 32 32v32h384v-32c0-17.673 14.327-32 32-32s32 14.327 32 32v32h64c35.346 0 64-28.654 64-64v-640zM388.224 566.464l-103.36-103.488-39.808 39.872c-5.457 4.84-12.681 7.796-20.596 7.796-17.178 0-31.104-13.926-31.104-31.104 0-7.914 2.956-15.138 7.824-20.628l65.764-65.824c5.626-5.559 13.363-8.992 21.902-8.992 4.387 0 8.562 0.906 12.349 2.542 6.767 2.107 12.589 6.271 16.775 11.752l119.342 118.987c6.256 6.293 10.123 14.967 10.123 24.544s-3.867 18.251-10.125 24.546c-6.291 6.254-14.965 10.121-24.542 10.121-9.577 0-18.251-3.867-24.546-10.125zM544 480h-64c-17.673 0-32-14.327-32-32s14.327-32 32-32h64c17.673 0 32 14.327 32 32s-14.327 32-32 32zM768 480h-64c-17.673 0-32-14.327-32-32s14.327-32 32-32h64c17.673 0 32 14.327 32 32s-14.327 32-32 32zM544 288h-64c-17.673 0-32-14.327-32-32s14.327-32 32-32h64c17.673 0 32 14.327 32 32s-14.327 32-32 32zM768 288h-64c-17.673 0-32-14.327-32-32s14.327-32 32-32h64c17.673 0 32 14.327 32 32s-14.327 32-32 32zM320 288h-64c-17.673 0-32-14.327-32-32s14.327-32 32-32h64c17.673 0 32 14.327 32 32s-14.327 32-32 32z"  horiz-adv-x="1024" />

    
    <glyph glyph-name="icon-test1" unicode="&#58927;" d="M896 704h-160c0 88.366-71.634 160-160 160-88.366 0-160-71.634-160-160h-160c-35.346 0-64-28.654-64-64v-160c-88.366 0-160-71.634-160-160 0-88.366 71.634-160 160-160v-160c0-35.346 28.654-64 64-64h224v64c0 53.019 42.981 96 96 96s96-42.981 96-96v-64h224c35.346 0 64 28.654 64 64v224h-64c-53.019 0-96 42.981-96 96s42.981 96 96 96h64v224c0 35.346-28.654 64-64 64zM736 320c0-88.366 71.634-160 160-160v-160h-160c0 88.366-71.634 160-160 160-88.366 0-160-71.634-160-160h-160v224h-64c-53.019 0-96 42.981-96 96s42.981 96 96 96h64v224h224v64c0 53.019 42.981 96 96 96s96-42.981 96-96v-64h224v-160c-88.366 0-160-71.634-160-160z"  horiz-adv-x="1024" />

    
    <glyph glyph-name="icon-test2" unicode="&#58928;" d="M96 832c17.673 0 32-14.327 32-32v-832c0-17.673-14.327-32-32-32s-32 14.327-32 32v832c0 17.673 14.327 32 32 32zM926.4 670.4c5.789-5.791 9.369-13.789 9.369-22.624 0-8.835-3.58-16.833-9.369-22.624l-271.488-271.488c-5.749-5.558-13.59-8.983-22.231-8.983-17.673 0-32 14.327-32 32 0 8.641 3.425 16.482 8.991 22.24l271.479 271.479c5.791 5.789 13.789 9.369 22.624 9.369s16.833-3.58 22.624-9.369zM465.152 593.152c5.789-5.791 9.369-13.789 9.369-22.624s-3.58-16.833-9.369-22.624l-181.056-181.056c-5.749-5.558-13.59-8.983-22.231-8.983-17.673 0-32 14.327-32 32 0 8.641 3.425 16.482 8.991 22.24l180.983 180.983c5.797 5.827 13.821 9.433 22.688 9.433 8.835 0 16.834-3.58 22.624-9.369zM426.304 598.72c-6.045-6.055-9.783-14.415-9.783-23.648s3.738-17.593 9.784-23.648l189.12-189.12c5.942-5.483 13.913-8.844 22.668-8.844 18.486 0 33.472 14.986 33.472 33.472 0 8.756-3.362 16.726-8.865 22.691l-189.099 189.097c-6.034 6.092-14.4 9.864-23.648 9.864s-17.614-3.772-23.645-9.861zM960-32c0-17.673-14.327-32-32-32h-832c-17.673 0-32 14.327-32 32s14.327 32 32 32h832c17.673 0 32-14.327 32-32z"  horiz-adv-x="1024" />

    
    <glyph glyph-name="icon-test3" unicode="&#58929;" d="M160 832c17.673 0 32-14.327 32-32v-832c0-17.673-14.327-32-32-32s-32 14.327-32 32v832c0 17.673 14.327 32 32 32zM512 832c17.673 0 32-14.327 32-32v-832c0-17.673-14.327-32-32-32s-32 14.327-32 32v832c0 17.673 14.327 32 32 32zM864 832c17.673 0 32-14.327 32-32v-832c0-17.673-14.327-32-32-32s-32 14.327-32 32v832c0 17.673 14.327 32 32 32zM64 672h192c17.673 0 32-14.327 32-32s-14.327-32-32-32h-192c-17.673 0-32 14.327-32 32s14.327 32 32 32zM416 192h192c17.673 0 32-14.327 32-32s-14.327-32-32-32h-192c-17.673 0-32 14.327-32 32s14.327 32 32 32zM768 672h192c17.673 0 32-14.327 32-32s-14.327-32-32-32h-192c-17.673 0-32 14.327-32 32s14.327 32 32 32z"  horiz-adv-x="1024" />

    
    <glyph glyph-name="icon-test4" unicode="&#58930;" d="M512 543.936c17.673 0 32-14.327 32-32v-576c0-17.673-14.327-32-32-32s-32 14.327-32 32v576c0 17.673 14.327 32 32 32zM96 287.936h832c17.673 0 32-14.327 32-32s-14.327-32-32-32h-832c-17.673 0-32 14.327-32 32s14.327 32 32 32zM96 575.936h832c17.673 0 32-14.327 32-32 0-17.673-14.327-32-32-32h-832c-17.673 0-32 14.327-32 32 0 17.673 14.327 32 32 32zM790.72 854.72c5.786-5.732 9.369-13.68 9.369-22.464s-3.583-16.732-9.366-22.462l-289.346-288.642c-5.784-5.751-13.757-9.305-22.56-9.305s-16.776 3.555-22.562 9.307c-5.754 5.745-9.314 13.688-9.314 22.462 0 8.775 3.56 16.718 9.315 22.464l289.472 288.704c5.746 5.755 13.689 9.315 22.464 9.315 8.806 0 16.775-3.586 22.526-9.378zM233.216 854.72c5.784 5.751 13.757 9.305 22.56 9.305s16.776-3.555 22.562-9.307l289.47-288.702c5.755-5.746 9.315-13.689 9.315-22.464 0-8.775-3.56-16.718-9.315-22.464-5.784-5.751-13.757-9.306-22.56-9.306-8.803 0-16.776 3.555-22.562 9.307l-289.47 288.702c-5.786 5.732-9.369 13.68-9.369 22.464 0 8.784 3.583 16.732 9.366 22.462z"  horiz-adv-x="1024" />

    
    <glyph glyph-name="jian" unicode="&#58931;" d="M224 432h576a48 48 0 0 0 0-96h-576a48 48 0 0 0 0 96z"  horiz-adv-x="1024" />

    
    <glyph glyph-name="jia" unicode="&#58932;" d="M224 432h576a48 48 0 0 0 0-96h-576a48 48 0 0 0 0 96zM560 672v-576a48 48 0 0 0-96 0v576a48 48 0 0 0 96 0z"  horiz-adv-x="1024" />

    
    <glyph glyph-name="dian" unicode="&#58933;" d="M512 576a192.064 192.064 0 0 0 0-384 192 192 0 0 0 0 384z"  horiz-adv-x="1024" />

    
    <glyph glyph-name="xitongrizhi" unicode="&#58934;" d="M864 800h-704a128 128 0 0 1-128-128v-576a128 128 0 0 1 128-128h704a128 128 0 0 1 128 128v576a128 128 0 0 1-128 128z m64-704a64 64 0 0 0-64-64h-704a64 64 0 0 0-64 64v384h832v-384z m0 448h-832v128a64 64 0 0 0 64 64h704a64 64 0 0 0 64-64v-128zM224 672H192a32 32 0 0 1 0-64h32a32 32 0 0 1 0 64zM384 672h-32a32 32 0 0 1 0-64H384a32 32 0 0 1 0 64zM288 320m-32 0a32 32 0 1 1 64 0 32 32 0 1 1-64 0ZM416 288h320a32 32 0 0 1 0 64h-320a32 32 0 0 1 0-64zM288 192m-32 0a32 32 0 1 1 64 0 32 32 0 1 1-64 0ZM416 160h320a32 32 0 0 1 0 64h-320a32 32 0 0 1 0-64z"  horiz-adv-x="1024" />

    
    <glyph glyph-name="xiangmuguanli" unicode="&#58935;" d="M864 704h-384a128 128 0 0 1-128 128h-192a128 128 0 0 1-128-128v-640a128 128 0 0 1 128-128h704a128 128 0 0 1 128 128V576a128 128 0 0 1-128 128z m-704 64h192a64 64 0 0 0 64-64h-320a64 64 0 0 0 64 64z m768-704a64 64 0 0 0-64-64h-704a64 64 0 0 0-64 64V640h768a64 64 0 0 0 64-64v-512zM711.872 388.352h-1.92c-32.128 0-58.24 27.648-58.24 61.696 0 11.2 5.056 23.488 5.056 23.552a28.8 28.8 0 0 1-8.896 33.728l-0.576 0.384-56 33.024-0.576 0.256a28.48 28.48 0 0 1-31.744-6.72c-6.848-7.488-28.416-26.88-45.888-26.88-17.472 0-39.232 19.776-46.08 27.392a28.416 28.416 0 0 1-20.992 9.216 25.472 25.472 0 0 1-10.624-2.24l-0.64-0.256-57.984-33.728-0.576-0.384a28.928 28.928 0 0 1-8.96-33.792c0-0.128 5.056-12.352 5.056-23.552 0-34.048-26.112-61.696-58.24-61.696h-1.92c-9.408 0.192-17.024-8.448-19.456-22.016-0.192-1.088-4.672-26.496-4.672-46.528s4.48-45.44 4.672-46.528c2.432-13.376 9.856-22.08 19.072-22.08H313.984c32.128 0 58.24-27.648 58.24-61.696 0-11.2-5.056-23.488-5.056-23.552a28.928 28.928 0 0 1 8.896-33.728l0.512-0.384 54.976-32.576 0.576-0.256a25.408 25.408 0 0 1 10.816-2.304 28.352 28.352 0 0 1 20.992 9.344c6.464 7.36 28.864 28.544 46.848 28.544s40.128-21.056 47.104-29.12a27.904 27.904 0 0 1 31.744-7.296l0.64 0.256 56.896 33.344 0.64 0.384a29.056 29.056 0 0 1 8.896 33.728c0 0.064-5.056 12.352-5.056 23.552 0 34.048 26.112 61.696 58.24 61.696h1.92c9.344-0.192 17.024 8.512 19.456 22.08 0.256 1.152 4.736 26.624 4.736 46.592s-4.48 45.44-4.672 46.528c-2.432 13.568-10.048 22.208-19.456 22.016z m-42.816-101.696c-36.16-1.92-65.088-33.92-65.088-72.96 0-12.992 4.736-25.472 5.76-28.032l-43.136-25.344-0.128-0.064c-0.64 0-1.216 0.256-1.344 0.448a121.088 121.088 0 0 1-16.064 15.104c-13.44 10.624-26.176 16-38.016 16-11.712 0-24.384-5.248-37.76-15.68-8.96-6.976-15.168-14.016-15.936-14.848a3.392 3.392 0 0 0-1.344-0.384h-0.128l-41.664 24.768a80.64 80.64 0 0 1 5.824 28.096c0 38.976-28.864 70.976-65.088 72.96a222.72 222.72 0 0 0-3.392 33.088c0 12.928 2.816 30.208 3.328 33.216 36.224 1.984 65.152 33.984 65.152 73.024 0 12.992-4.736 25.408-5.76 28.032l43.968 25.664h0.128c0.768 0 1.408-0.256 1.6-0.448 0.768-0.768 6.912-7.552 15.872-14.336 13.12-9.984 25.6-15.04 37.056-15.04 11.328 0 23.68 4.992 36.8 14.784 8.96 6.656 15.04 13.312 15.808 14.016a3.008 3.008 0 0 0 1.6 0.448h0.128l42.496-25.088c-1.024-2.56-5.76-15.104-5.76-28.096 0-38.976 28.864-70.976 65.088-73.024 0.576-3.072 3.392-20.224 3.392-33.152 0-12.864-2.816-30.144-3.392-33.152zM448.768 320a64.384 63.232 90 1 1 126.464 0 64.384 63.232 90 1 1-126.464 0Z"  horiz-adv-x="1024" />

    
    <glyph glyph-name="qiyexinxi" unicode="&#58936;" d="M352 608h-64a32 32 0 0 1 0-64h64a32 32 0 0 1 0 64zM352 480h-64a32 32 0 0 1 0-64h64a32 32 0 0 1 0 64zM352 352h-64a32 32 0 0 1 0-64h64a32 32 0 0 1 0 64zM352 224h-64a32 32 0 0 1 0-64h64a32 32 0 0 1 0 64zM544 608h-64a32 32 0 0 1 0-64h64a32 32 0 0 1 0 64zM544 480h-64a32 32 0 0 1 0-64h64a32 32 0 0 1 0 64zM544 352h-64a32 32 0 0 1 0-64h64a32 32 0 0 1 0 64zM544 224h-64a32 32 0 0 1 0-64h64a32 32 0 0 1 0 64zM960 32h-64v576a64 64 0 0 1-64 64h-128v64a64 64 0 0 1-64 64H192a64 64 0 0 1-64-64v-704H64a32 32 0 0 1 0-64h896a32 32 0 0 1 0 64z m-768 0v704h448v-704H192z m512 0v576h128v-576h-128z"  horiz-adv-x="1024" />

    
    <glyph glyph-name="yuangongguanli" unicode="&#58937;" d="M16 48a32 32 0 0 1 64 0 256 256 0 0 0 256 256 255.36 255.36 0 0 0 105.152-23.04c4.992 21.248 12.096 41.536 21.12 60.992A320 320 0 0 1 16 48zM336 816a192 192 0 1 1 0-384 192 192 0 0 1 0 384z m0-320.256a128.256 128.256 0 1 0 0 256.576 128.256 128.256 0 0 0 0-256.576zM1002.624 260.928c-2.752 15.488-11.52 25.408-22.208 25.216h-2.24c-36.672 0-66.56 31.616-66.56 70.528 0 12.736 5.76 26.88 5.76 26.944a32.96 32.96 0 0 1-10.112 38.592l-0.64 0.512-64 37.632-0.64 0.32a32.576 32.576 0 0 1-36.288-7.68c-7.808-8.512-32.448-30.656-52.288-30.656-20.096 0-44.864 22.656-52.736 31.296a33.472 33.472 0 0 1-24.192 10.368 30.528 30.528 0 0 1-12.096-2.496l-0.704-0.384-66.304-38.464-0.64-0.512a32.896 32.896 0 0 1-10.176-38.528c0.064-0.128 5.824-14.272 5.824-27.008 0-38.848-29.888-70.528-66.56-70.528h-2.24c-10.688 0.32-19.456-9.664-22.208-25.152-0.256-1.28-5.376-30.272-5.376-53.12s5.12-51.968 5.376-53.184c2.752-15.296 11.264-25.216 21.76-25.216h2.688c36.672 0 66.56-31.616 66.56-70.528 0-12.8-5.76-26.816-5.76-26.944a33.024 33.024 0 0 1 10.048-38.592l0.64-0.448 62.784-37.184 0.64-0.32a31.744 31.744 0 0 1 36.352 8.064c7.36 8.448 33.024 32.64 53.504 32.64 20.672 0 45.952-24 53.888-33.28a32.256 32.256 0 0 1 24.256-10.944 29.44 29.44 0 0 1 12.096 2.56l0.64 0.32 65.152 38.144 0.64 0.448a32.896 32.896 0 0 1 10.176 38.528c-0.064 0.192-5.824 14.208-5.824 27.008 0 38.848 29.888 70.528 66.56 70.528h2.24c10.688-0.192 19.456 9.664 22.208 25.216 0.256 1.28 5.376 30.336 5.376 53.184s-5.12 51.904-5.376 53.12z m-71.104-91.072c-41.344-2.24-74.368-38.784-74.368-83.392 0-14.848 5.44-29.12 6.656-32.128l-49.344-28.992h-0.064a3.712 3.712 0 0 0-1.6 0.448 142.08 142.08 0 0 1-18.304 17.344c-15.36 12.096-30.016 18.304-43.52 18.304-13.312 0-27.84-6.08-43.136-17.92-10.24-8-17.344-16-18.24-17.024a2.688 2.688 0 0 0-1.472-0.448h-0.128l-47.616 28.288c1.152 2.88 6.656 17.216 6.656 32.192 0 44.48-33.024 81.088-74.368 83.328-0.64 3.52-3.904 23.168-3.904 37.952s3.264 34.432 3.904 37.952c41.344 2.24 74.368 38.784 74.368 83.392 0 14.848-5.376 29.12-6.656 32.128l50.304 29.376h0.192c0.832 0 1.6-0.384 1.856-0.512 0.832-0.96 7.872-8.704 18.048-16.384 15.04-11.456 29.312-17.28 42.432-17.28 12.864 0 27.072 5.76 41.984 16.896 10.112 7.616 17.216 15.168 17.984 16.064a3.584 3.584 0 0 0 1.856 0.512h0.192l48.576-28.672a94.72 94.72 0 0 1-6.656-32.128c0-44.544 33.024-81.152 74.368-83.392 0.64-3.52 3.904-23.168 3.904-37.952s-3.328-34.432-3.904-37.952zM679.744 208a73.536 72.256 90 1 1 144.512 0 73.536 72.256 90 1 1-144.512 0Z"  horiz-adv-x="1024" />

    
    <glyph glyph-name="jiaosequanxian" unicode="&#58938;" d="M192 576a192 192 0 1 1 0-384 192 192 0 0 1 0 384z m0-320a128 128 0 1 0 0.064 256.064A128 128 0 0 0 192 256zM352 416h640a32 32 0 0 0 0-64h-640a32 32 0 0 0 0 64zM640 544c17.6 0 32-14.4 32-32v-128a32 32 0 0 0-64 0V512c0 17.6 14.4 32 32 32zM864 544c17.6 0 32-14.4 32-32v-128a32 32 0 0 0-64 0V512c0 17.6 14.4 32 32 32z"  horiz-adv-x="1024" />

    
    <glyph glyph-name="zhuceshenpi" unicode="&#58939;" d="M32 32a32 32 0 0 1 64 0 256 256 0 0 0 256 256 254.08 254.08 0 0 0 101.888-21.376c4.224 21.376 10.56 41.856 18.944 61.376A318.848 318.848 0 0 1 352 352a320 320 0 0 1-320-320zM352 800a192 192 0 1 1 0-384 192 192 0 0 1 0 384z m0-320.192a128.192 128.192 0 1 0 0 256.448 128.192 128.192 0 0 0 0-256.448zM752 448a240 240 0 1 1 0-480 240 240 0 0 1 0 480z m0-416a176 176 0 1 0 0 352 176 176 0 1 0 0-352zM885.376 278.464a34.752 34.752 0 0 1-49.152 0l-103.36-103.424-39.872 39.872a31.104 31.104 0 0 1-43.904-43.904l65.856-65.856a30.976 30.976 0 0 1 33.984-6.592 33.856 33.856 0 0 1 13.632 8.064l122.752 122.752a34.752 34.752 0 0 1 0.064 49.088z"  horiz-adv-x="1024" />

    
    <glyph glyph-name="bumenguanli" unicode="&#58940;" d="M896 155.52V320c0 17.6-14.4 32-32 32h-704A32 32 0 0 1 128 320v-164.48a127.808 127.808 0 0 1 32-251.52 127.808 127.808 0 1 1 32 251.52V288h640v-132.48a127.808 127.808 0 0 1 32-251.52 127.808 127.808 0 1 1 32 251.52zM224 32a64 64 0 1 0-128 0 64 64 0 0 0 128 0z m640-64a64 64 0 1 0 0 128 64 64 0 1 0 0-128zM311.744 571.264h2.304c32.128 0 58.24-27.648 58.24-61.632 0-11.264-5.056-23.488-5.056-23.616a29.12 29.12 0 0 1 8.896-33.792l0.512-0.384 54.976-32.576 0.576-0.32a28.352 28.352 0 0 1 31.808 7.104c6.464 7.36 28.864 28.544 46.848 28.544s40.128-21.056 47.104-29.12a28.544 28.544 0 0 1 21.184-9.472 25.728 25.728 0 0 1 10.624 2.24l0.64 0.256 56.896 33.344 0.64 0.384a28.992 28.992 0 0 1 8.896 33.728c0 0.128-5.056 12.352-5.056 23.616 0 33.984 26.112 61.632 58.24 61.632h1.92c9.344-0.192 17.024 8.512 19.456 22.08 0.128 1.088 4.608 26.496 4.608 46.528s-4.48 45.44-4.672 46.528c-2.432 13.568-10.048 22.272-19.456 22.016h-1.92c-32.128 0-58.24 27.712-58.24 61.696 0 11.2 5.056 23.488 5.056 23.616a28.8 28.8 0 0 1-8.896 33.728l-0.576 0.384-56 32.96L590.72 860.992a28.48 28.48 0 0 1-31.744-6.72c-6.848-7.488-28.416-26.88-45.888-26.88-17.472 0-39.232 19.84-46.08 27.392A28.416 28.416 0 0 1 446.016 864a25.472 25.472 0 0 1-10.624-2.24l-0.64-0.256-57.984-33.728-0.576-0.448a28.8 28.8 0 0 1-8.96-33.664c0-0.128 5.056-12.416 5.056-23.616 0-33.984-26.112-61.696-58.24-61.696h-1.92c-9.408 0.256-17.024-8.448-19.456-22.016a318.336 318.336 0 0 1-4.672-46.528c0-20.032 4.48-45.44 4.672-46.528 2.432-13.376 9.92-22.016 19.072-22.016z m43.136 101.76c36.224 1.984 65.152 33.92 65.152 72.96 0 12.992-4.736 25.472-5.76 28.096l43.968 25.728h0.128c0.768 0 1.408-0.256 1.6-0.448 0.768-0.768 6.912-7.552 15.872-14.272 13.12-9.984 25.6-15.04 37.056-15.04 11.328 0 23.68 4.992 36.8 14.72 8.96 6.592 15.04 13.248 15.808 13.952a2.944 2.944 0 0 0 1.6 0.512h0.128l42.496-25.088c-1.024-2.56-5.76-15.04-5.76-28.096 0-38.976 28.864-70.912 65.088-72.96 0.576-3.072 3.392-20.288 3.392-33.216s-2.816-30.144-3.392-33.216c-36.16-2.048-65.024-33.984-65.024-72.896 0-13.056 4.736-25.536 5.76-28.096l-43.136-25.408h-0.128a2.368 2.368 0 0 0-1.344 0.384c-0.832 0.832-7.04 8-16.128 15.104-13.44 10.624-26.176 16-38.016 16-11.712 0-24.384-5.248-37.76-15.68-8.96-6.976-15.168-14.016-15.936-14.848-0.192-0.192-0.768-0.384-1.344-0.384h-0.128l-41.664 24.704c1.088 2.56 5.824 15.04 5.824 28.16 0 38.912-28.864 70.848-65.088 72.896-0.576 3.136-3.392 20.352-3.392 33.28s2.816 30.08 3.328 33.152zM448.768 640a64.384 63.232 90 1 1 126.464 0 64.384 63.232 90 1 1-126.464 0Z"  horiz-adv-x="1024" />

    
    <glyph glyph-name="fukuanzhanghao" unicode="&#58941;" d="M864 800h-704a128 128 0 0 1-128-128v-576a128 128 0 0 1 128-128h704a128 128 0 0 1 128 128v576a128 128 0 0 1-128 128z m64-704a64 64 0 0 0-64-64h-704a64 64 0 0 0-64 64v448h832v-448z m0 512h-832v64a64 64 0 0 0 64 64h704a64 64 0 0 0 64-64v-64zM288 256a32 32 0 0 1 32 32V320a32 32 0 0 1-64 0v-32a32 32 0 0 1 32-32zM384 256a32 32 0 0 1 32 32V320a32 32 0 0 1-64 0v-32a32 32 0 0 1 32-32zM480 256a32 32 0 0 1 32 32V320a32 32 0 0 1-64 0v-32a32 32 0 0 1 32-32zM576 256a32 32 0 0 1 32 32V320a32 32 0 0 1-64 0v-32a32 32 0 0 1 32-32zM736 256a32 32 0 0 1 32 32V320a32 32 0 0 1-64 0v-32a32 32 0 0 1 32-32zM832 256a32 32 0 0 1 32 32V320a32 32 0 0 1-64 0v-32a32 32 0 0 1 32-32z"  horiz-adv-x="1024" />

    
    <glyph glyph-name="hesuankemuleixing" unicode="&#58942;" d="M320 672h608a32 32 0 0 1 0 64H320a32 32 0 0 1 0-64zM192 800H128a64 64 0 0 1-64-64v-64a64 64 0 0 1 64-64h64a64 64 0 0 1 64 64v64a64 64 0 0 1-64 64z m0-128H128v64h64v-64zM928 416H320a32 32 0 0 1 0-64h608a32 32 0 0 1 0 64zM192 480H128a64 64 0 0 1-64-64v-64a64 64 0 0 1 64-64h64a64 64 0 0 1 64 64v64a64 64 0 0 1-64 64z m0-128H128v64h64v-64zM416 96H320a32 32 0 0 1 0-64h96a32 32 0 0 1 0 64zM192 160H128a64 64 0 0 1-64-64v-64a64 64 0 0 1 64-64h64a64 64 0 0 1 64 64v64a64 64 0 0 1-64 64z m0-128H128v64h64v-64zM873.856 278.784l-202.624-202.624-106.688 106.688a30.72 30.72 0 1 1-43.456-43.456l123.648-123.712c1.344-2.24 2.496-4.608 4.352-6.592a32 32 0 0 1 24-9.088 30.72 30.72 0 0 1 21.76 9.024c0.768 0.704 1.024 1.6 1.6 2.432l222.4 222.336a31.872 31.872 0 0 1-44.992 44.992z"  horiz-adv-x="1024" />

    
    <glyph glyph-name="zhifufangshi" unicode="&#58943;" d="M864 800h-704a128 128 0 0 1-128-128v-576a128 128 0 0 1 128-128h704a128 128 0 0 1 128 128v576a128 128 0 0 1-128 128z m64-704a64 64 0 0 0-64-64h-704a64 64 0 0 0-64 64v448h832v-448z m0 512h-832v64a64 64 0 0 0 64 64h704a64 64 0 0 0 64-64v-64zM384 224a32 32 0 0 1 0-64h96v-64a32 32 0 0 1 64 0v64H640a32 32 0 0 1 0 64H544v64H640a32 32 0 0 1 0 64H560.384l-1.088 1.088 102.4 102.4a33.472 33.472 0 0 1-47.296 47.296L512 400.384l-102.4 102.4a33.472 33.472 0 0 1-47.296-47.296l102.4-102.4-1.088-1.088H384a32 32 0 0 1 0-64h96v-64H384z"  horiz-adv-x="1024" />

    
    <glyph glyph-name="xiaoshouzu" unicode="&#58944;" d="M640 320a128 128 0 1 1 128 128c-34.432 0-65.472-13.76-88.576-35.904C646.72 471.424 584.448 512 512 512s-134.72-40.576-167.424-99.904A127.488 127.488 0 0 1 256 448a128 128 0 1 1 128-128 128 128 0 0 0 256 0z m128 63.488a63.488 63.488 0 1 0 0-126.976 63.488 63.488 0 0 0 0 126.976zM256 256.512a63.488 63.488 0 1 0 0 126.976 63.488 63.488 0 0 0 0-126.976zM512 576A128 128 0 1 1 511.936 832.064 128 128 0 0 1 512 576z m0 191.488a63.488 63.488 0 1 0 0-126.976 63.488 63.488 0 0 0 0 126.976zM256 128a192 192 0 0 1-192-192h64a128 128 0 0 0 256 0h64a192 192 0 0 1-192 192zM768 128a192 192 0 0 1-192-192h64a128 128 0 0 0 256 0h64a192 192 0 0 1-192 192z"  horiz-adv-x="1024" />

    
    <glyph glyph-name="lianxiren" unicode="&#58945;" d="M832 832H256a128 128 0 0 1-128-128v-64h-32a32 32 0 0 1 0-64H128v-160h-32a32 32 0 0 1 0-64H128V192h-32a32 32 0 0 1 0-64H128v-64a128 128 0 0 1 128-128h576a128 128 0 0 1 128 128V704a128 128 0 0 1-128 128z m64-768a64 64 0 0 0-64-64H256a64 64 0 0 0-64 64v64h32a32 32 0 0 1 0 64H192V352h32a32 32 0 0 1 0 64H192V576h32a32 32 0 0 1 0 64H192V704a64 64 0 0 0 64 64h576a64 64 0 0 0 64-64v-640zM544 320a192 192 0 0 1-192-192h64a128 128 0 0 0 256 0h64a192 192 0 0 1-192 192zM544 384a128 128 0 1 1-0.064 256.064A128 128 0 0 1 544 384z m0 191.488a63.488 63.488 0 1 0 0-126.976 63.488 63.488 0 0 0 0 126.976z"  horiz-adv-x="1024" />

    
    <glyph glyph-name="baobiaotongji" unicode="&#58946;" d="M128 256a32 32 0 0 1-32-32v-192a32 32 0 0 1 64 0v192A32 32 0 0 1 128 256zM384 480a32 32 0 0 1-32-32v-416a32 32 0 0 1 64 0V448a32 32 0 0 1-32 32zM640 256a32 32 0 0 1-32-32v-192a32 32 0 0 1 64 0v192a32 32 0 0 1-32 32zM896 480a32 32 0 0 1-32-32v-416a32 32 0 0 1 64 0V448a32 32 0 0 1-32 32zM896 768a64 64 0 0 1-64-64c0-5.504 1.792-10.496 3.136-15.616L655.616 508.8C650.496 510.208 645.568 512 640 512c-4.608 0-8.704-1.664-12.992-2.624L445.376 691.008C446.336 695.36 448 699.392 448 704a64 64 0 1 1-128 0c0-5.504 1.856-10.496 3.136-15.616L143.616 508.864C138.496 510.208 133.504 512 128 512a64 64 0 1 1 0-128 64 64 0 0 1 64 64c0 5.504-1.792 10.496-3.136 15.616L368.448 643.2c5.056-1.344 10.048-3.2 15.552-3.2 5.248 0 9.92 1.792 14.784 2.944l180.224-180.16C577.792 457.92 576 453.248 576 448a64 64 0 1 1 128 0c0 5.504-1.792 10.496-3.136 15.616l179.52 179.584c5.12-1.344 10.048-3.2 15.616-3.2a64 64 0 1 1 0 128z"  horiz-adv-x="1024" />

    
    <glyph glyph-name="wodebaoxiaodan" unicode="&#58947;" d="M864 768h-704a128 128 0 0 1-128-128v-512a128 128 0 0 1 128-128h704a128 128 0 0 1 128 128V640a128 128 0 0 1-128 128z m64-640a64 64 0 0 0-64-64h-704a64 64 0 0 0-64 64V640a64 64 0 0 0 64 64h704a64 64 0 0 0 64-64v-512zM832 416h-192a32 32 0 0 1 0-64h192a32 32 0 0 1 0 64zM832 288h-192a32 32 0 0 1 0-64h192a32 32 0 0 1 0 64zM832 544h-192a32 32 0 0 1 0-64h192a32 32 0 0 1 0 64zM384 320a192 192 0 0 1-192-192h64a128 128 0 0 0 256 0h64a192 192 0 0 1-192 192zM384 384a128 128 0 1 1-0.064 256.064A128 128 0 0 1 384 384z m0 191.488a63.488 63.488 0 1 0 0-126.976 63.488 63.488 0 0 0 0 126.976z"  horiz-adv-x="1024" />

    
    <glyph glyph-name="yewubanli" unicode="&#58948;" d="M982.912 694.912a31.296 31.296 0 0 1-44.16 0l-554.304-554.304-298.304 298.24a31.808 31.808 0 0 1-44.992-44.928l318.4-318.336c0.64-0.832 0.896-1.728 1.6-2.432a31.04 31.04 0 0 1 22.4-9.024 31.488 31.488 0 0 1 23.424 9.152c1.344 1.344 1.92 3.008 2.944 4.416l573.056 573.056c12.16 12.16 12.16 32-0.064 44.16z"  horiz-adv-x="1024" />

    
    <glyph glyph-name="caogaoxiang" unicode="&#58949;" d="M982.656 409.088l-61.632 61.568a33.024 33.024 0 0 1-46.656-46.656l39.936-40H800V704a64 64 0 0 1-64 64h-448a64 64 0 0 1-64-64v-320H110.976l39.552 39.488a33.152 33.152 0 1 1-47.04 46.976l-62.016-61.952a32.896 32.896 0 0 1-9.472-24.896V128a128 128 0 0 1 128-128h704a128 128 0 0 1 128 128V384h-0.064a32.64 32.64 0 0 1-9.28 25.088zM288 704h448v-320h-448V704z m640-576a64 64 0 0 0-64-64h-704a64 64 0 0 0-64 64V320h832v-192zM640 640H384a32 32 0 0 1 0-64h256a32 32 0 0 1 0 64zM640 512H384a32 32 0 0 1 0-64h256a32 32 0 0 1 0 64z"  horiz-adv-x="1024" />

    
    <glyph glyph-name="chuchashenqing" unicode="&#58950;" d="M864 768h-704a128 128 0 0 1-128-128v-512a128 128 0 0 1 128-128h704a128 128 0 0 1 128 128V640a128 128 0 0 1-128 128z m64-640a64 64 0 0 0-64-64h-704a64 64 0 0 0-64 64V640a64 64 0 0 0 64 64h704a64 64 0 0 0 64-64v-512zM832 416h-192a32 32 0 0 1 0-64h192a32 32 0 0 1 0 64zM832 288h-192a32 32 0 0 1 0-64h192a32 32 0 0 1 0 64zM832 544h-192a32 32 0 0 1 0-64h192a32 32 0 0 1 0 64zM384.384 556.416m-51.584 0a51.584 51.584 0 1 1 103.168 0 51.584 51.584 0 1 1-103.168 0ZM372.672 479.424h23.36v-11.648h-23.36zM372.672 433.792l11.712-14.976 11.648 14.976V462.72h-23.36zM238.016 299.2v9.984a3.456 3.456 0 0 1-3.456 3.456h-23.488a3.52 3.52 0 0 1-3.52-3.456v-9.984c0-1.92 1.536-3.456 3.52-3.456h23.488c1.92 0 3.456 1.536 3.456 3.456zM440.384 480.064l-56-71.68-56.064 71.68c-33.92-7.424-84.032-39.872-92.864-76.48l-30.784-58.24c-2.88-12.992 2.432-21.824 13.056-25.216a20.032 20.032 0 0 1 25.344 13.056l67.968 36.928 10.368-214.976a26.24 26.24 0 0 1 52.48 0l10.432 169.472 10.432-169.472a26.368 26.368 0 0 1 39.616-23.104 26.176 26.176 0 0 1 12.928 23.104l10.368 214.976 46.464-34.496a20.352 20.352 0 0 1 8-13.12 20.288 20.288 0 0 1 14.912-3.648c11.008 1.792 18.048 10.752 16.832 23.04l-11.904 60.928c-3.2 46.464-57.6 69.824-91.584 77.248z m-56-97.472a6.528 6.528 0 0 0-6.592 6.528 6.592 6.592 0 1 0 13.184 0 6.592 6.592 0 0 0-6.592-6.528zM244.544 285.824h-42.048A10.496 10.496 0 0 1 192 275.328v-104.32c0-5.76 4.672-10.496 10.496-10.496h42.048a10.496 10.496 0 0 1 10.496 10.496v104.32a10.496 10.496 0 0 1-10.496 10.496z"  horiz-adv-x="1024" />

    
    <glyph glyph-name="richangfeiyongbaoxiao" unicode="&#58951;" d="M864 768h-704a128 128 0 0 1-128-128v-512a128 128 0 0 1 128-128h704a128 128 0 0 1 128 128V640a128 128 0 0 1-128 128z m64-640a64 64 0 0 0-64-64h-704a64 64 0 0 0-64 64V640a64 64 0 0 0 64 64h704a64 64 0 0 0 64-64v-512zM832 416h-192a32 32 0 0 1 0-64h192a32 32 0 0 1 0 64zM832 288h-192a32 32 0 0 1 0-64h192a32 32 0 0 1 0 64zM832 544h-192a32 32 0 0 1 0-64h192a32 32 0 0 1 0 64zM160.32 496.832v-56c10.88 1.344 22.784 4.864 35.84 10.432s23.232 11.904 30.72 18.88v-246.464h60.928V543.744h-38.592a263.68 263.68 0 0 0-88.896-46.912zM431.424 300.032c6.72 8.192 19.84 19.968 39.36 35.136 20.288 15.616 35.008 28.928 44.224 40.064 9.216 11.136 16.192 23.04 21.12 35.712 4.8 12.736 7.232 26.944 7.232 42.624 0 28.224-8.384 50.368-25.216 66.432s-39.616 24.128-68.48 24.128a144 144 0 0 1-85.056-26.688v-58.56c22.656 21.696 46.4 32.576 71.232 32.576 28.352 0 42.56-14.144 42.56-42.496 0-13.184-3.712-25.6-11.2-37.312-7.424-11.776-20.48-25.28-39.104-40.448a291.008 291.008 0 0 1-45.184-41.216c-9.664-11.712-17.28-24.384-22.848-37.952s-8.32-28.544-8.32-44.992v-23.36h192.128V278.4H421.376c0 6.08 3.328 13.312 10.048 21.632z"  horiz-adv-x="1024" />

    
    <glyph glyph-name="huankuandan" unicode="&#58952;" d="M864 768h-704a128 128 0 0 1-128-128v-512a128 128 0 0 1 128-128h704a128 128 0 0 1 128 128V640a128 128 0 0 1-128 128z m64-640a64 64 0 0 0-64-64h-704a64 64 0 0 0-64 64V640a64 64 0 0 0 64 64h704a64 64 0 0 0 64-64v-512zM832 416h-192a32 32 0 0 1 0-64h192a32 32 0 0 1 0 64zM832 288h-192a32 32 0 0 1 0-64h192a32 32 0 0 1 0 64zM832 544h-192a32 32 0 0 1 0-64h192a32 32 0 0 1 0 64zM489.088 374.72L384 269.632V576a32 32 0 0 1-64 0v-306.368L214.912 374.72a32.32 32.32 0 0 1-45.696-45.696l159.872-159.808a32 32 0 0 1 22.912-9.408 32.128 32.128 0 0 1 22.912 9.408l159.808 159.808a32.32 32.32 0 0 1-45.632 45.696z"  horiz-adv-x="1024" />

    
    <glyph glyph-name="shoukuanrenguanli" unicode="&#58974;" d="M64 64a32 32 0 0 1 64 0 256 256 0 0 0 256 256c37.568 0 72.96-8.576 105.152-23.04 4.992 21.248 12.096 41.6 21.12 60.992A320 320 0 0 1 64 64zM384 832a192 192 0 1 1 0-384 192 192 0 0 1 0 384z m0-320.192a128.192 128.192 0 1 0 0 256.448 128.192 128.192 0 0 0 0-256.448zM928 128h-128v64h128a32 32 0 0 1 0 64h-111.616l-1.088 1.088 102.4 102.4a33.472 33.472 0 0 1-47.296 47.296l-102.4-102.4-102.4 102.4a33.472 33.472 0 0 1-47.296-47.296l102.4-102.4-1.088-1.088H608a32 32 0 0 1 0-64h128v-64h-128a32 32 0 0 1 0-64h128v-96a32 32 0 0 1 64 0V64h128a32 32 0 0 1 0 64z"  horiz-adv-x="1024" />

    
    </font>
</defs>
</svg>
